<?xml version="1.0" standalone="no"?>
<!DOCTYPE svg PUBLIC "-//W3C//DTD SVG 1.1//EN" "http://www.w3.org/Graphics/SVG/1.1/DTD/svg11.dtd" >
<svg xmlns="http://www.w3.org/2000/svg" xmlns:xlink="http://www.w3.org/1999/xlink" version="1.1">
<metadata>
Created by FontForge 20170731 at Thu Dec 28 22:50:56 35698580
 By Aleksey,,,
Copyright 1992 Southern Software, Inc. All Rights Reserved
</metadata>
<defs>
<font id="CaslonTwoBlackSSK" horiz-adv-x="579" >
  <font-face 
    font-family="CaslonTwoBlackSSK"
    font-weight="400"
    font-stretch="normal"
    units-per-em="1000"
    panose-1="0 0 4 0 0 0 0 0 0 0"
    ascent="800"
    descent="-200"
    x-height="461"
    cap-height="687"
    bbox="-239 -233 1137 934"
    underline-thickness="50"
    underline-position="-175"
    unicode-range="U+0020-F002"
  />
<missing-glyph horiz-adv-x="500" 
d="M63 0v800h375v-800h-375zM125 63h250v675h-250v-675z" />
    <glyph glyph-name=".notdef" horiz-adv-x="500" 
d="M63 0v800h375v-800h-375zM125 63h250v675h-250v-675z" />
    <glyph glyph-name=".null" horiz-adv-x="0" 
 />
    <glyph glyph-name="nonmarkingreturn" horiz-adv-x="299" 
 />
    <glyph glyph-name="space" unicode=" " horiz-adv-x="299" 
 />
    <glyph glyph-name="exclam" unicode="!" horiz-adv-x="330" 
d="M272 577q0 -60 -47 -172t-47 -156q0 -25 -13 -25t-13 25q0 44 -47 156t-47 172q0 50 28 85q31 39 79 39t79 -39q28 -35 28 -85zM270 98q0 -44 -30.5 -75t-74.5 -31t-74.5 31t-30.5 75t30.5 75t74.5 31t74.5 -31t30.5 -75z" />
    <glyph glyph-name="quotedbl" unicode="&#x22;" horiz-adv-x="329" 
d="M303 644q0 -126 -20 -274q-5 -37 -31 -37t-31 37q-20 148 -20 274q0 57 51 57t51 -57zM128 644q0 -126 -20 -274q-5 -37 -31 -37t-31 37q-20 148 -20 274q0 57 51 57t51 -57z" />
    <glyph glyph-name="numbersign" unicode="#" horiz-adv-x="605" 
d="M543 398h-87l-16 -111h75v-95h-88l-27 -192h-96l26 192h-88l-27 -192h-96l26 192h-83v95h96l16 111h-83v95h95l26 192h97l-26 -192h88l26 192h97l-26 -192h75v-95zM359 398h-88l-16 -111h88z" />
    <glyph glyph-name="dollar" unicode="$" horiz-adv-x="572" 
d="M542 755q-50 -113 -50 -167q0 -10 1.5 -50.5t1.5 -76.5q0 -15 -9 -17q-9 36 -44 89l-48 -111q141 -77 141 -196q0 -95 -62.5 -158.5t-157.5 -63.5q-35 0 -100 20l-48 -105h-32l52 116q-29 9 -35 9q-34 0 -58 -46q-15 -39 -31 -77h-34q30 65 61 137q8 39 8 111v113
q1 21 12 21q8 0 22 -48q18 -60 18 -61l50 110q-103 61 -103 180q0 78 58.5 135.5t136.5 57.5q38 0 68 -12l43 90h31l-45 -100q39 -15 47 -15q19 0 45 50q15 33 30 65h31zM423 560q-23 34 -52 57l-67 -153q30 -18 62 -29zM347 635q-27 17 -58 17q-34 0 -57 -21t-23 -56
q0 -65 67 -98zM409 125q0 44 -27 73q-19 19 -68 45l-80 -174q34 -42 87 -42q42 0 65 28t23 70zM286 258l-60 32l-58 -131q13 -32 44 -69z" />
    <glyph glyph-name="percent" unicode="%" horiz-adv-x="730" 
d="M739 187q0 -74 -56 -134.5t-129 -60.5q-78 0 -131.5 58.5t-53.5 136.5q0 77 54 136t131 59q78 0 131.5 -58.5t53.5 -136.5zM705 693l-621 -701h-59l617 701h63zM361 498q0 -74 -56 -134.5t-129 -60.5q-78 0 -131.5 58.5t-53.5 136.5q0 77 54 136t131 59q78 0 131.5 -58.5
t53.5 -136.5zM607 187q0 177 -53 177t-53 -177q0 -72 5 -102q11 -75 48 -75q38 0 49 76q4 29 4 101zM229 498q0 177 -53 177t-53 -177q0 -72 5 -102q11 -75 48 -75q38 0 49 76q4 29 4 101z" />
    <glyph glyph-name="ampersand" unicode="&#x26;" horiz-adv-x="794" 
d="M801 121q0 -68 -61 -106q-52 -31 -125 -31q-94 0 -156 76q-98 -76 -219 -76q-103 0 -172 52q-76 57 -76 157q0 68 48 118q44 47 112 61q-54 59 -54 137q0 80 63 136t143 56q65 0 116.5 -43t51.5 -106q0 -43 -27 -77.5t-70 -50.5q85 -54 189 -179q20 33 20 72q0 62 -28 88
q-6 6 -34.5 16t-28.5 14l12 10h245l15 -12q0 -5 -19 -12l-24 -8q-51 -21 -88 -79q-12 -18 -57 -107q33 -48 66 -97q50 -70 79 -70q49 0 56 67l12 14q11 -3 11 -20zM402 540q0 137 -92 137q-70 0 -70 -81q0 -49 40 -94q21 -23 79 -68q43 38 43 106zM443 73q-96 115 -271 272
q-10 -43 -10 -78q0 -88 41 -154q48 -77 131 -77q62 0 109 37z" />
    <glyph glyph-name="quotesingle" unicode="'" horiz-adv-x="211" 
d="M156 644q0 -126 -20 -274q-5 -37 -31 -37t-31 37q-20 148 -20 274q0 57 51 57t51 -57z" />
    <glyph glyph-name="parenleft" unicode="(" horiz-adv-x="332" 
d="M321 -223l-11 -9q-135 1 -225 185q-75 151 -75 300q0 148 75 300q90 183 225 184l11 -9q-155 -42 -155 -475q0 -434 155 -476z" />
    <glyph glyph-name="parenright" unicode=")" horiz-adv-x="438" 
d="M375 253q0 -149 -75 -300q-90 -184 -225 -185l-11 9q155 42 155 476q0 433 -155 475l11 9q135 -1 225 -184q75 -152 75 -300z" />
    <glyph glyph-name="asterisk" unicode="*" horiz-adv-x="436" 
d="M398 577q0 -33 -29 -46q-19 -8 -64 -11.5t-60 -9.5l-3 9q15 8 47 60q27 43 62 43q20 0 33.5 -12.5t13.5 -32.5zM264 648q0 -24 -18 -57q-20 -40 -24 -56h-8q-4 16 -25 56q-17 33 -17 57q0 53 46 53t46 -53zM398 418q0 -18 -13.5 -32t-31.5 -14q-38 0 -64 43
q-34 56 -47 65l3 10q13 -6 60 -12q44 -5 63 -15q30 -14 30 -45zM194 519l-3 -9q-15 6 -60.5 9.5t-63.5 11.5q-29 13 -29 46q0 20 13.5 32.5t33.5 12.5q35 0 62 -43q32 -52 47 -60zM264 349q0 -52 -46 -52t-46 52q0 24 17 58q21 40 25 56h8q4 -16 24 -56q18 -34 18 -58z
M194 480q-14 -9 -48 -65q-25 -43 -63 -43q-18 0 -31.5 14t-13.5 32q0 31 29 45q19 10 64.5 15.5t59.5 11.5z" />
    <glyph glyph-name="plus" unicode="+" horiz-adv-x="544" 
d="M499 169h-167v-169h-120v169h-167v121h167v169h120v-169h167v-121z" />
    <glyph glyph-name="comma" unicode="," horiz-adv-x="297" 
d="M268 41q0 -140 -134 -238q-32 -23 -40 -23q-9 0 -9 8q0 4 30 28q37 29 56 55q29 40 29 85q0 46 -23 46q-8 0 -23.5 -5t-24.5 -5q-43 0 -72 25.5t-29 68.5q0 47 30 77.5t77 30.5q56 0 96 -50q37 -47 37 -103z" />
    <glyph glyph-name="hyphen" unicode="-" horiz-adv-x="355" 
d="M301 172h-248v115h248v-115z" />
    <glyph glyph-name="hyphen" unicode="&#x2010;" horiz-adv-x="355" 
d="M301 172h-248v115h248v-115z" />
    <glyph glyph-name="period" unicode="." horiz-adv-x="289" 
d="M250 98q0 -44 -31 -75t-74 -31q-44 0 -74.5 31t-30.5 75t30.5 75t74.5 31q43 0 74 -31t31 -75z" />
    <glyph glyph-name="slash" unicode="/" horiz-adv-x="284" 
d="M319 701l-234 -717h-120l234 717h120z" />
    <glyph glyph-name="zero" unicode="0" 
d="M567 342q0 -126 -74 -232q-82 -118 -203 -118q-122 0 -204 118q-73 106 -73 232t73 232q82 119 204 119q121 0 203 -119q74 -106 74 -232zM375 374q1 28 1 48q0 253 -86 253q-87 0 -87 -253q0 -20 1 -47.5t1 -32.5t-1 -32.5t-1 -48.5q0 -251 87 -251q86 0 86 251
q0 21 -1 48v33v32z" />
    <glyph glyph-name="one" unicode="1" 
d="M504 10l-19 -12h-390l-19 12q11 9 68 20q40 8 40 43v481q0 29 -38 29q-8 0 -24 -1.5t-22 -1.5q-19 0 -19 12t33 18q22 2 44 5q122 17 238 78v-620q0 -35 39 -43q57 -11 69 -20z" />
    <glyph glyph-name="two" unicode="2" 
d="M547 233q-2 -21 -35 -109q-36 -96 -41 -124h-438q14 96 92 177q68 61 135 121q70 66 70 134q0 57 -42 93q-39 33 -97 33q-44 0 -75 -24q-20 -14 -38 -43q-15 -24 -20 -24q-10 0 -10 15q0 81 86 148q81 63 163 63q86 0 153 -53q72 -58 72 -142q0 -111 -81 -175
q-42 -34 -162 -80q-100 -39 -123 -77h260q54 0 75 21q23 29 46 57z" />
    <glyph glyph-name="three" unicode="3" 
d="M554 230q0 -100 -98 -172q-89 -66 -192 -66q-87 0 -152 29q-86 39 -86 115q0 35 24.5 62t59.5 27q66 0 85 -48q11 -25 11 -103q0 -58 77 -58q51 0 83 26.5t32 77.5q0 97 -66.5 159t-162.5 62l-13 10q2 11 43 15q49 5 71 20q38 25 38 89q0 47 -31 79t-77 32q-37 0 -61 -16
q-14 -9 -27 -29q-11 -16 -16 -16l-11 14q0 61 79 110q70 44 135 44q78 0 134.5 -49t56.5 -126q0 -60 -47 -100q111 -68 111 -188z" />
    <glyph glyph-name="four" unicode="4" 
d="M579 265l-27 -87h-82v-98q0 -32 21 -44q9 -5 40 -9q21 -3 21 -15l-17 -14h-330l-17 14q0 12 21 15q31 4 40 9q21 12 21 44v98h-235l-35 54l325 461h145v-428h109zM270 265v275h-2l-191 -275h193z" />
    <glyph glyph-name="five" unicode="5" 
d="M545 216q0 -106 -90 -169q-79 -55 -190 -55q-75 0 -145 34q-86 41 -86 109q0 39 24.5 67t63.5 28q71 0 90 -55l16 -104q12 -55 66 -55q46 0 75.5 30.5t29.5 77.5q0 84 -81 130q-67 39 -157 39q-46 0 -85 -15q67 250 78 407h322q25 0 37 14t17 14l10 -11q-8 -38 -27 -92
q-17 -46 -33 -91h-322l-18 -84q53 13 104 13q119 0 203 -55q98 -65 98 -177z" />
    <glyph glyph-name="six" unicode="6" 
d="M567 221q0 -107 -85 -171q-77 -58 -187 -58q-131 0 -208 87q-74 84 -74 216q0 161 140 281q134 116 300 117l10 -8q-41 -26 -90 -58q-98 -80 -140 -228q58 29 118 29q94 0 155 -56.5t61 -150.5zM367 186q0 98 -7 127q-18 73 -83 73q-29 0 -50 -13q-14 -50 -14 -140
q0 -95 6 -132q16 -91 71 -91q53 0 69 67q8 30 8 109z" />
    <glyph glyph-name="seven" unicode="7" 
d="M562 628q-200 -233 -199 -636q-67 9 -135 9q-69 0 -135 -9q27 163 119 290q74 102 223 221v2h-333q-35 0 -51 -25.5t-21 -26.5l-12 14l82 218h423z" />
    <glyph glyph-name="eight" unicode="8" 
d="M562 219q0 -109 -95 -172q-83 -55 -198 -55q-101 0 -171 46q-81 52 -81 148q0 50 38 94q34 39 84 57q-85 62 -85 155q0 94 81 151q72 50 170 50q77 0 138 -39q69 -46 69 -119q0 -82 -91 -123q141 -78 141 -193zM432 537q0 54 -29 91q-31 41 -83 41q-45 0 -73 -23
q-31 -24 -31 -68q0 -63 64 -103q15 -10 119 -53q33 40 33 115zM400 128q0 70 -94 124q-76 37 -152 75q-37 -57 -37 -127q0 -77 33 -126q39 -58 112 -58q138 0 138 112z" />
    <glyph glyph-name="nine" unicode="9" 
d="M567 390q0 -161 -141 -281q-134 -116 -299 -117l-10 8q40 26 89 58q98 80 141 228q-59 -29 -118 -29q-96 0 -156 56.5t-60 150.5q0 107 84 171q77 58 188 58q130 0 206 -85.5t76 -217.5zM367 451q0 95 -7 132q-16 92 -70 92t-70 -67q-7 -31 -7 -109q0 -99 6 -127
q18 -73 84 -73q28 0 50 13q14 48 14 139z" />
    <glyph glyph-name="colon" unicode=":" horiz-adv-x="285" 
d="M248 365q0 -44 -31 -75t-74 -31q-44 0 -74.5 31t-30.5 75q0 43 30.5 74.5t74.5 31.5q43 0 74 -31.5t31 -74.5zM248 98q0 -44 -31 -75t-74 -31q-44 0 -74.5 31t-30.5 75t30.5 75t74.5 31q43 0 74 -31t31 -75z" />
    <glyph glyph-name="semicolon" unicode=";" horiz-adv-x="295" 
d="M240 365q0 -44 -30.5 -75t-74.5 -31q-43 0 -74 31t-31 75q0 43 31 74.5t74 31.5q44 0 74.5 -31.5t30.5 -74.5zM267 41q0 -140 -134 -238q-32 -23 -40 -23q-9 0 -9 8q0 4 30 28q37 29 56 55q29 40 29 85q0 46 -23 46q-8 0 -23.5 -5t-24.5 -5q-43 0 -72 25.5t-29 68.5
q0 47 30 77.5t77 30.5q56 0 96 -50q37 -47 37 -103z" />
    <glyph glyph-name="less" unicode="&#x3c;" horiz-adv-x="560" 
d="M507 -14l-454 195v97l454 194v-118l-301 -125l301 -124v-119z" />
    <glyph glyph-name="equal" unicode="=" horiz-adv-x="551" 
d="M502 268h-454v121h454v-121zM502 70h-454v121h454v-121z" />
    <glyph glyph-name="greater" unicode="&#x3e;" horiz-adv-x="507" 
d="M480 181l-454 -195v119l301 124l-301 125v118l454 -194v-97z" />
    <glyph glyph-name="question" unicode="?" horiz-adv-x="459" 
d="M437 482q0 -94 -52.5 -147t-140.5 -53q-21 0 -44 3l2 -47l-47 7q-13 89 -51 172l55 39q32 -32 85 -32q56 0 93.5 38.5t37.5 94.5q0 39 -25.5 68t-64.5 29q-45 0 -71 -42q-21 -39 -41 -79q-27 -42 -73 -42q-35 0 -57 21t-22 56q0 63 61 100q52 33 118 33q100 0 167 -59
q70 -62 70 -160zM278 98q0 -44 -30.5 -75t-74.5 -31q-43 0 -74 31t-31 75t31 75t74 31q44 0 74.5 -31t30.5 -75z" />
    <glyph glyph-name="at" unicode="@" horiz-adv-x="804" 
d="M759 395q0 -90 -50 -164q-55 -84 -141 -84q-33 0 -61 21q-31 23 -32 55h-2q-13 -28 -48.5 -51.5t-66.5 -23.5q-52 0 -79 43q-24 37 -24 92q0 93 49 167q56 83 145 83q52 0 79 -50l10 34h78l-38 -134q-23 -85 -23 -134q0 -51 32 -51q40 0 69 81q25 66 25 115
q0 100 -81 166q-77 62 -179 62q-114 0 -185 -90q-65 -84 -65 -201q0 -112 74.5 -190t185.5 -78q112 0 204 50l9 -64q-111 -65 -229 -65q-158 0 -262 92q-108 95 -108 251q0 165 105.5 269.5t270.5 104.5q138 0 235 -83q103 -87 103 -223zM505 405q0 66 -42 66q-50 0 -83 -72
q-27 -59 -27 -116q0 -72 43 -72q46 0 80 77q29 65 29 117z" />
    <glyph glyph-name="A" unicode="A" horiz-adv-x="739" 
d="M751 8q0 -10 -19 -10h-326l-13 10q0 10 34 13.5t34 32.5q0 13 -64 186h-194q-32 -85 -32 -120q0 -56 34 -81q2 -2 32 -15q24 -12 24 -17l-16 -9h-246l-12 10q65 20 105 67q30 36 59 110q136 337 136 342q0 31 -46 40q27 4 93 57t76 81q5 -5 11 -15l239 -598
q18 -45 46 -62q1 0 27 -8q18 -6 18 -14zM390 265l-87 230l-92 -230h179z" />
    <glyph glyph-name="B" unicode="B" horiz-adv-x="721" 
d="M697 201q0 -203 -275 -203h-384l-15 12q0 12 22 15q32 5 40 9q22 11 22 41v535q0 30 -22 40q-7 4 -40 10q-22 3 -22 15l15 12h369q258 0 258 -165q0 -84 -80 -124q-61 -30 -155 -30v-4q267 -4 267 -163zM453 526q0 76 -8 97q-17 40 -79 40h-59v-285h47q69 0 88 41
q11 25 11 107zM477 189q0 88 -19 120q-26 45 -106 45h-45v-295q0 -37 50 -37q84 0 106 42q14 27 14 125z" />
    <glyph glyph-name="C" unicode="C" horiz-adv-x="702" 
d="M673 19q0 -4 -3.5 -11.5t-7.5 -7.5q-9 0 -16.5 18.5t-21.5 18.5q-36 0 -111.5 -26.5t-117.5 -26.5q-162 0 -264 98.5t-102 259.5q0 153 104 256t258 103q57 0 132 -31.5t92 -31.5q18 0 25 23.5t17 23.5q14 0 14 -20v-242l-9 -18q-6 0 -33 56q-16 35 -32 69
q-88 147 -193 147q-155 0 -155 -335q0 -138 19 -207q35 -127 136 -127q59 0 123 51q54 44 89 103q11 25 21 51q18 40 25 40l11 -16v-218z" />
    <glyph glyph-name="D" unicode="D" horiz-adv-x="752" 
d="M740 342q0 -166 -107 -257q-101 -87 -270 -87h-336l-15 12q0 11 21 15q33 5 41 9q22 11 22 41v535q0 30 -22 40q-8 4 -41 10q-21 3 -21 15l15 12h336q170 0 270 -87q107 -92 107 -258zM520 342q0 143 -20 209q-37 118 -145 118h-59v-616q0 -37 59 -37q108 0 144 118
q21 66 21 208z" />
    <glyph glyph-name="E" unicode="E" horiz-adv-x="686" 
d="M670 260q-4 -52 -22 -132l-30 -130h-587l-15 12q0 12 21 15q33 5 41 9q22 11 22 41v535q0 30 -22 41q-8 4 -41 8q-21 4 -21 16l15 12h545l69 -230l-11 -12q-39 59 -96 135q-84 80 -238 83v-289q67 0 98 26q22 18 38 62q19 52 34 72l10 -13v-331l-10 -13q-16 21 -33 75
q-15 48 -36 68q-32 29 -101 29v-262q0 -38 17 -51.5t57 -13.5q102 0 171 62q46 42 81 117q31 67 34 68z" />
    <glyph glyph-name="F" unicode="F" horiz-adv-x="654" 
d="M641 457l-11 -12q-6 0 -13 11q-18 32 -38 66.5t-45 57.5q-84 80 -238 83v-289q67 0 99 27q22 18 38 63q19 52 33 70l10 -13v-331l-10 -13q-16 21 -33 75q-15 48 -36 68q-32 29 -101 29v-274q0 -30 25 -41q9 -4 45 -9q24 -3 24 -15l-15 -12h-348l-15 12q0 12 21 15
q33 5 41 9q22 11 22 41v535q0 30 -22 41q-8 4 -41 8q-21 4 -21 16l15 12h545z" />
    <glyph glyph-name="G" unicode="G" horiz-adv-x="779" 
d="M756 315q1 -12 -15 -16q-24 -5 -29 -9q-16 -11 -16 -40v-256h-59l-33 60q-89 -70 -232 -70q-148 0 -248.5 104.5t-100.5 253.5q0 156 103 257.5t259 101.5q49 0 122 -27.5t91 -27.5q20 0 27 20t15 23l13 -15v-261l-9 -11q-5 0 -8 6q-11 18 -27 62q-15 41 -28 63
q-86 144 -190 144q-98 0 -131 -149q-17 -76 -17 -225q0 -107 21 -179q34 -116 115 -116q117 0 117 138v104q0 30 -22 41q-8 4 -40 9q-22 4 -22 15l15 12h314z" />
    <glyph glyph-name="H" unicode="H" horiz-adv-x="848" 
d="M810 10l-15 -12h-318l-15 12q0 11 16 15q25 5 31 9q17 11 17 41v285h-204v-285q0 -30 17 -41q6 -4 31 -9q16 -4 16 -15l-15 -12h-318l-15 12q0 11 21 15q33 5 41 9q22 11 22 41v535q0 30 -22 40q-8 4 -41 10q-21 3 -21 15l15 12h318l15 -12q0 -12 -16 -15q-25 -6 -31 -10
q-17 -10 -17 -40v-226h204v226q0 30 -17 40q-6 4 -31 10q-16 3 -16 15l15 12h318l15 -12q0 -12 -22 -15q-32 -6 -40 -10q-22 -10 -22 -40v-535q0 -30 22 -41q8 -4 40 -9q22 -4 22 -15z" />
    <glyph glyph-name="I" unicode="I" horiz-adv-x="451" 
d="M410 10q0 -12 -15 -12h-338q-15 0 -15 12t21 15q33 5 41 9q22 11 22 41v535q0 30 -22 41q-8 3 -41 8q-21 4 -21 16t15 12h338q15 0 15 -12t-22 -16q-33 -5 -41 -8q-21 -11 -21 -41v-535q0 -30 21 -41q8 -4 41 -9q22 -3 22 -15z" />
    <glyph glyph-name="J" unicode="J" horiz-adv-x="593" 
d="M564 675q0 -12 -21 -16q-33 -4 -41 -8q-22 -11 -22 -41v-355q0 -271 -271 -271q-68 0 -120 34q-59 38 -59 103q0 44 24.5 71t68.5 27q37 0 60 -26t23 -64q0 -18 -16 -44t-16 -38q0 -39 49 -39q25 0 41 19.5t16 45.5v537q0 30 -22 41q-8 4 -41 8q-21 4 -21 16l15 12h338z
" />
    <glyph glyph-name="K" unicode="K" horiz-adv-x="791" 
d="M782 10l-13 -12l-241 2l-193 346l-28 -26v-245q0 -30 22 -41q8 -4 41 -9q21 -4 21 -15l-15 -12h-338l-15 12q0 11 21 15q33 5 41 9q22 11 22 41v535q0 30 -22 40q-8 4 -41 10q-21 3 -21 15l15 12h338l15 -12q0 -12 -21 -15q-33 -6 -41 -10q-22 -10 -22 -40v-262
q57 59 114 117q88 100 88 147q0 26 -17 40q-9 7 -30 14q-17 5 -17 11q6 10 22 10h233l21 -10q0 -7 -16 -11q-11 -3 -22 -5q-55 -17 -113 -73l-100 -97l238 -428q14 -25 47 -36q27 -9 27 -17z" />
    <glyph glyph-name="L" unicode="L" horiz-adv-x="668" 
d="M659 260q-4 -52 -22 -132l-30 -130h-562l-15 12q0 12 21 15q33 5 41 9q22 11 22 41v535q0 30 -22 41q-8 4 -41 8q-21 4 -21 16l15 12h338l15 -12q0 -12 -21 -16q-33 -4 -41 -8q-22 -11 -22 -41v-523q0 -65 58 -65q125 0 208 121q34 63 69 126z" />
    <glyph glyph-name="M" unicode="M" horiz-adv-x="876" 
d="M892 10l-15 -12h-338l-15 12q-1 11 21 15q33 5 41 9q22 11 22 41v509h-2q-59 -157 -117 -313q-103 -272 -115 -279q-14 5 -120 275q-60 155 -120 311h-2v-412q0 -84 41 -116q4 -4 43 -18q32 -13 32 -21l-19 -13h-226l-19 13q0 8 32 21q38 14 43 18q41 32 41 116v444
q0 30 -22 40q-8 4 -41 10q-22 3 -21 15l15 12l264 -2l161 -415l159 415l262 2l15 -12q0 -12 -22 -15q-32 -6 -40 -10q-22 -10 -22 -40v-535q0 -30 22 -41q8 -4 40 -9q22 -4 22 -15z" />
    <glyph glyph-name="N" unicode="N" horiz-adv-x="806" 
d="M785 674q0 -9 -33 -21q-39 -15 -44 -19q-39 -33 -39 -115v-538l-10 -9q-13 1 -234 265l-250 302v-373q0 -82 39 -115q5 -4 44 -19q33 -13 33 -21l-19 -13h-226l-19 13q0 8 33 21q38 15 43 19q40 33 40 115v409q-24 36 -55 54t-62 35q-5 4 -5 10q0 13 22 13l258 -2
l336 -404v238q0 82 -40 115q-4 4 -44 19q-32 12 -32 21l19 13h226z" />
    <glyph glyph-name="O" unicode="O" horiz-adv-x="779" 
d="M763 342q0 -155 -108.5 -256.5t-265.5 -101.5q-156 0 -265 101.5t-109 256.5q0 156 110 259q107 100 264 100t265 -100q109 -103 109 -259zM543 342q0 149 -16 210q-32 125 -138 125q-105 0 -138 -125q-16 -61 -16 -210q0 -148 16 -209q33 -125 138 -125q106 0 138 125
q16 61 16 209z" />
    <glyph glyph-name="P" unicode="P" horiz-adv-x="673" 
d="M654 501q0 -128 -122 -172q-73 -26 -229 -26v-228q0 -30 22 -41q8 -4 41 -9q21 -3 21 -15l-15 -12h-338l-15 12q0 12 22 15q32 5 40 9q22 11 22 41v535q0 30 -22 41q-8 4 -40 8q-22 4 -22 16l15 12h365q104 0 172 -40q83 -50 83 -146zM434 495q0 82 -12 113
q-20 55 -87 55h-32v-336h32q67 0 87 55q12 31 12 113z" />
    <glyph glyph-name="Q" unicode="Q" horiz-adv-x="779" 
d="M763 342q0 -163 -118.5 -265.5t-282.5 -91.5l-2 -2q63 -28 126 -57q87 -37 128 -37q43 0 69 20q16 12 31 39q12 22 20 24l9 -11q-2 -69 -101 -123q-86 -46 -160 -46q-72 0 -148 45q-10 5 -118 82q-62 45 -101 45q-30 0 -44 -19q-17 -24 -24 -27l-8 7q1 45 45 76t92 31
q12 0 23 -2l2 2q-87 45 -136.5 128.5t-49.5 181.5q0 156 110 259q107 100 264 100t264 -100q110 -103 110 -259zM543 342q0 149 -16 210q-33 125 -138 125t-138 -125q-16 -61 -16 -210q0 -148 16 -209q33 -125 138 -125t138 125q16 61 16 209z" />
    <glyph glyph-name="R" unicode="R" horiz-adv-x="775" 
d="M770 6l-17 -8l-250 2l-133 282q-16 33 -31 43t-50 10v-260q0 -30 22 -41q8 -4 41 -9q21 -4 21 -15l-15 -12h-338l-15 12q0 11 21 15q33 5 41 9q22 11 22 41v535q0 30 -22 40q-8 4 -41 10q-21 3 -21 15l15 12h383q97 0 159 -36q77 -45 77 -135q0 -162 -268 -167v-2
q108 -4 161 -34q45 -25 80 -92q40 -80 80 -161q14 -27 49 -38q29 -8 29 -16zM419 511q0 72 -11 102q-19 50 -77 50h-42v-303h42q58 0 77 50q11 29 11 101z" />
    <glyph glyph-name="S" unicode="S" horiz-adv-x="636" 
d="M591 230q0 -115 -91 -184q-82 -62 -201 -62q-36 0 -102.5 18t-98.5 18q-17 0 -25.5 -18t-14.5 -18q-12 0 -12 20v260q0 23 13 23q7 0 11 -11q7 -16 26 -80q15 -49 35 -80q71 -108 174 -108q56 0 90 34t34 90q0 80 -99 118l-184 64q-99 50 -99 159q0 105 80 169
q74 59 181 59q31 0 88 -18t83 -18q18 0 23.5 18t14.5 18q17 -10 21 -232l-12 -17q-27 49 -54 99q-33 60 -66 88q-44 38 -106 38q-52 0 -83 -27q-34 -28 -34 -79q0 -64 106 -99q186 -62 196 -68q106 -57 106 -174z" />
    <glyph glyph-name="T" unicode="T" horiz-adv-x="719" 
d="M714 458l-10 -12l-90 136q-49 63 -146 79v-586q0 -30 25 -41q9 -4 46 -9q25 -3 25 -15l-15 -12h-362l-15 12q0 12 25 15q37 5 46 9q25 11 25 41v586q-97 -16 -146 -79l-90 -136l-10 12q4 40 24 135q22 106 32 114q14 -22 54 -22h472q40 0 54 22q10 -8 32 -114
q20 -95 24 -135z" />
    <glyph glyph-name="U" unicode="U" horiz-adv-x="791" 
d="M764 675q-114 -33 -114 -196q0 -37 7 -119t7 -122q0 -120 -50 -179q-64 -75 -224 -75q-112 0 -184 36q-96 47 -96 148v442q0 30 -21 40q-8 4 -41 10q-22 3 -22 15l15 12h338l15 -12q1 -12 -21 -15q-33 -6 -41 -10q-22 -10 -22 -40v-458q0 -62 36.5 -99t97.5 -37
q79 0 130.5 49t51.5 127v327q0 69 -19 101q-23 37 -87 55l14 12h216z" />
    <glyph glyph-name="V" unicode="V" horiz-adv-x="725" 
d="M724 679q0 -8 -23 -18q-16 -7 -31 -14q-45 -30 -76 -106q-59 -148 -117 -297q-102 -252 -120 -260q-14 6 -19 19l-251 613q-14 34 -45 45q-26 9 -25 15l12 11h312q15 0 22 -10q-1 -5 -31 -17.5t-30 -39.5q0 -19 140 -377h2l68 168q52 132 52 169q0 43 -23 63
q-12 11 -41 19q-22 6 -22 14l17 11h213z" />
    <glyph glyph-name="W" unicode="W" horiz-adv-x="1012" 
d="M1000 676q0 -4 -28 -20q-32 -17 -36 -21q-42 -39 -75 -129l-98 -278q-87 -239 -100 -244q-13 5 -92 216q-44 123 -89 246q-44 -123 -87 -246q-77 -211 -90 -216q-6 5 -14 14l-222 618q-11 30 -40 42q-25 11 -25 18l16 11h273q27 0 27 -11q0 -6 -22.5 -17t-22.5 -37
q0 -66 46 -178q35 -84 71 -169h2l74 209l-36 110q-33 78 -74 80q8 13 33 13h269q23 0 23 -11q0 -6 -27.5 -17.5t-27.5 -37.5q0 -18 54 -172q32 -87 64 -175h2q29 77 57 154q34 97 34 162q0 37 -20 55q-12 11 -38 19q-20 5 -20 12l15 11h205z" />
    <glyph glyph-name="X" unicode="X" horiz-adv-x="748" 
d="M746 7l-21 -9h-330q-17 0 -26 13q0 9 32.5 14.5t32.5 34.5q0 34 -54 122q-38 58 -75 115q-32 -49 -63 -99q-40 -69 -40 -107q0 -35 18 -52q9 -9 32 -17q18 -5 18 -14q0 -10 -19 -10h-233l-16 13q0 5 6.5 9t53.5 27q32 15 54 34q45 39 95 114q10 14 79 127l-180 300
q-8 14 -40 33t-32 21q0 11 20 11h308l14 -12q0 -4 -26.5 -12t-26.5 -29q0 -10 116 -199l54 82q35 58 35 92q0 26 -16 40q-10 9 -28.5 16t-18.5 11l18 11h204l17 -10q0 -7 -19 -15q-13 -4 -26 -9q-50 -24 -99 -91l-109 -149l206 -339q17 -28 39 -38q37 -18 41.5 -21t4.5 -8z
" />
    <glyph glyph-name="Y" unicode="Y" horiz-adv-x="736" 
d="M725 677q0 -4 -25 -17q-29 -16 -30 -16q-49 -37 -99 -121l-100 -168v-280q0 -30 22 -41q8 -4 40 -9q22 -4 22 -15l-15 -12h-338l-15 12q0 11 22 15q32 5 40 9q22 11 22 41v237l-176 303q-17 29 -38 37q-37 13 -41.5 16.5t-4.5 8.5l17 10h342l22 -11q0 -5 -33.5 -15
t-33.5 -37q0 -16 57 -125q35 -65 70 -129q33 55 65 110q44 81 44 124q0 30 -17 44q-9 8 -32 14q-17 5 -17 12q0 13 32 13h174q19 0 24 -10z" />
    <glyph glyph-name="Z" unicode="Z" horiz-adv-x="685" 
d="M665 254l-77 -256q-282 3 -567 0l409 665q-165 -3 -258 -93q-23 -21 -46 -59q-29 -47 -39 -61q-4 -5 -7 -5l-10 11q10 48 33 116q19 58 39 115q130 -2 261 -2q130 0 261 2l-406 -665h14q109 0 207 59q93 57 152 153q6 11 23 30z" />
    <glyph glyph-name="bracketleft" unicode="[" horiz-adv-x="310" 
d="M264 -190l-16 -10h-202v905h202l16 -10q0 -8 -18 -11q-25 -4 -35 -11q-19 -14 -19 -49v-743q0 -35 19 -49q10 -7 35 -11q18 -3 18 -11z" />
    <glyph glyph-name="backslash" unicode="\" horiz-adv-x="284" 
d="M319 -16h-120l-234 717h120z" />
    <glyph glyph-name="bracketright" unicode="]" horiz-adv-x="418" 
d="M318 -200h-202l-16 10q0 8 18 11q25 4 35 11q19 14 19 49v743q0 35 -19 49q-10 7 -35 11q-18 3 -18 11l16 10h202v-905z" />
    <glyph glyph-name="asciicircum" unicode="^" horiz-adv-x="533" 
d="M475 354h-117l-91 197l-91 -197h-117l156 331h104z" />
    <glyph glyph-name="underscore" unicode="_" horiz-adv-x="450" 
d="M475 -126h-500v50h500v-50z" />
    <glyph glyph-name="grave" unicode="`" horiz-adv-x="294" 
d="M271 529h-61l-152 90q-35 21 -35 50q0 23 16.5 36.5t39.5 13.5q37 0 67 -37z" />
    <glyph glyph-name="a" unicode="a" horiz-adv-x="517" 
d="M517 76q-2 -36 -56 -62q-46 -22 -85 -22q-88 0 -106 65q-80 -65 -151 -65q-48 0 -81 22q-37 25 -37 70q0 48 50 87q38 28 109 55q51 17 103 34v141q0 41 -30 41q-56 0 -56 -58q0 -10 2 -31.5t2 -30.5q0 -36 -24.5 -57t-60.5 -21q-77 0 -77 62q0 70 107 120q90 41 170 41
q149 0 149 -128v-271q0 -20 17 -20q14 0 26 18t20 19zM263 76v162q-80 -32 -80 -100q0 -83 41 -83q18 0 39 21z" />
    <glyph glyph-name="b" unicode="b" horiz-adv-x="586" 
d="M573 246q0 -110 -78 -182t-188 -72q-79 0 -164 46q-23 -19 -64 -46l-3 10v616q0 28 -31 40t-31 17q0 9 22 13q14 1 29 2q85 11 181 47v-313q47 43 122 43q99 0 152 -60t53 -161zM391 189q0 80 -22 138q-31 83 -97 83q-26 0 -26 -15v-332q0 -53 59 -53q86 0 86 179z" />
    <glyph glyph-name="c" unicode="c" horiz-adv-x="537" 
d="M491 157q-1 -67 -82 -119q-72 -46 -142 -46q-95 0 -158.5 65.5t-63.5 161.5q0 101 73 174.5t174 73.5q72 0 132 -39q67 -45 67 -114q0 -38 -20.5 -61t-57.5 -23q-74 0 -74 90q0 15 2 42t2 38q0 48 -50 48q-42 0 -66 -52q-20 -42 -20 -89q0 -78 38 -137q44 -69 118 -69
q53 0 82 25q13 20 37 41z" />
    <glyph glyph-name="d" unicode="d" horiz-adv-x="587" 
d="M575 44q-74 0 -230 -52v63q-68 -63 -150 -63q-91 0 -139 61q-43 55 -43 149q0 114 72 189.5t186 75.5q41 0 74 -12v163q0 28 -31 40t-31 17q0 9 22 13q14 1 29 2q85 11 181 47v-636q0 -26 29.5 -39t30.5 -18zM345 77v254q0 117 -70 117q-56 0 -73 -73q-7 -34 -7 -117
q0 -71 16 -123q24 -80 80 -80q29 0 54 22z" />
    <glyph glyph-name="e" unicode="e" horiz-adv-x="535" 
d="M495 171q-1 -78 -74 -131q-66 -48 -146 -48q-104 0 -170 66t-66 169t70.5 171.5t173.5 68.5q91 0 148 -56.5t58 -147.5h-278q6 -67 37 -111q37 -51 100 -51q53 0 81 23q29 30 57 59zM335 287q0 66 -6 94q-14 61 -57 61t-57 -61q-6 -28 -6 -94h126z" />
    <glyph glyph-name="f" unicode="f" horiz-adv-x="392" 
d="M384 661q0 -82 -65 -82q-64 0 -64 74q0 9 1 27.5t1 26.5q0 28 -26 28q-20 0 -32 -17.5t-12 -38.5q0 -37 26.5 -109.5t27.5 -110.5h95l-27 -57h-68v-342q0 -28 29 -37t29 -15l-11 -10h-264l-11 10q0 6 29 15t29 37v342h-64q19 27 70 137q49 104 85 150q54 71 114 71
q44 0 76 -28t32 -71z" />
    <glyph glyph-name="g" unicode="g" horiz-adv-x="523" 
d="M519 -66q0 -94 -98 -136q-70 -30 -179 -30q-77 0 -139 18q-92 28 -92 88q0 35 25 59q23 21 59 24v2q-55 17 -55 74q0 116 175 125v2q-70 6 -117 37q-58 38 -58 102q0 83 71 128q59 38 148 40q0 165 107 165q61 0 61 -59q0 -41 -23 -55q-16 -11 -52 -11h-11q-8 1 -12 1
q-56 0 -56 -41q213 -18 213 -154q0 -126 -184 -156q-42 -6 -85 -12q-69 -13 -69 -34t35 -22q72 -1 145 -1q88 -4 133 -32q58 -37 58 -122zM316 309q0 61 -5 84q-11 55 -48 55t-48 -55q-5 -23 -5 -84t5 -84q11 -55 48 -55t48 55q5 23 5 84zM431 -126q0 62 -112 62
q-14 0 -39 -2q-24 -1 -32 0q-20 0 -64 3.5t-66 3.5q-41 0 -41 -59q0 -90 169 -90q185 0 185 82z" />
    <glyph glyph-name="h" unicode="h" horiz-adv-x="591" 
d="M587 8l-11 -10h-256l-11 10q-1 6 24.5 15t25.5 37v283q0 61 -47 61q-35 0 -75 -39v-305q0 -28 25 -37t25 -15l-11 -10h-256l-11 10q-1 6 28.5 15.5t29.5 36.5v558q0 28 -31 40t-31 17q0 9 24 13q15 1 31 3q82 10 177 46v-340q90 70 165 70q136 0 136 -213
q0 -39 -4.5 -106t-4.5 -88q0 -27 29 -36.5t29 -15.5z" />
    <glyph glyph-name="i" unicode="i" horiz-adv-x="358" 
d="M283 628q0 -42 -29 -71.5t-71 -29.5t-71 29.5t-29 71.5t29 71.5t71 29.5t71 -29.5t29 -71.5zM326 8q0 -10 -11 -10h-264q-11 0 -11 10q0 7 29 15.5t29 36.5v288q0 29 -17 46q-10 9 -32 17q-17 7 -17 13q0 7 50 11q90 8 186 32v-407q0 -28 29 -36.5t29 -15.5z" />
    <glyph glyph-name="j" unicode="j" horiz-adv-x="411" 
d="M374 628q0 -42 -29 -71.5t-71 -29.5t-71 29.5t-29 71.5t29 71.5t71 29.5t71 -29.5t29 -71.5zM359 -54q0 -85 -57 -133q-53 -45 -140 -45q-45 0 -82 22q-42 26 -42 69q0 60 66 60q48 0 59 -31q3 -10 3 -70q0 -26 31 -26q45 0 45 37q0 17 -26.5 61t-26.5 94v364
q0 29 -17 46q-10 9 -32 17q-17 7 -17 13q0 7 49 11q90 8 187 32v-521z" />
    <glyph glyph-name="k" unicode="k" horiz-adv-x="646" 
d="M634 8q0 -10 -25 -10h-248q-16 0 -16 11q0 6 17 13t17 22q0 18 -43 106l-50 96l68 59q44 44 44 74q0 29 -15 44q-8 8 -28 15q-15 5 -15 13q0 10 14 10h205q16 0 16 -11q0 -6 -22 -14l-28 -8q-60 -24 -117 -87l160 -282q7 -13 38 -31q28 -16 28 -20zM310 8l-11 -10h-264
l-11 10q0 6 29 15t29 37v558q0 29 -31 40t-31 17q0 9 22 13q15 1 29 2q85 11 181 47v-677q0 -28 29 -37t29 -15z" />
    <glyph glyph-name="l" unicode="l" horiz-adv-x="333" 
d="M312 8l-11 -10h-264l-11 10q0 6 29 15t29 37v558q0 29 -31 40t-31 17q0 9 22 13q15 1 29 2q85 11 181 47v-677q0 -28 29 -37t29 -15z" />
    <glyph glyph-name="m" unicode="m" horiz-adv-x="873" 
d="M870 6l-17 -8h-247l-17 8q0 5 29 15t29 37v278q0 68 -57 68q-34 0 -62 -32v-314q0 -28 25 -37t25 -15l-17 -8h-236l-17 8q0 6 25 15t25 37v278q0 68 -57 68q-34 0 -62 -32v-314q0 -28 26.5 -37t26.5 -15l-17 -8h-247l-17 8q0 5 29 15t29 37v270q0 60 -53 78q-14 4 -14 9
q0 10 56 13q93 7 176 31v-63q81 71 166 71q79 0 122 -72q84 72 160 72q145 0 145 -219q0 -39 -5 -104.5t-5 -85.5q0 -28 26.5 -37t26.5 -15z" />
    <glyph glyph-name="n" unicode="n" horiz-adv-x="598" 
d="M592 8l-11 -10h-256l-11 10q0 6 25 15t25 37v283q0 61 -47 61q-34 0 -75 -39v-305q0 -28 25 -37t25 -15l-11 -10h-256l-11 10q0 6 29 15t29 37v288q0 29 -17 46q-10 9 -32 17q-17 7 -17 13q0 7 53 11q87 8 183 32v-70q90 70 165 70q127 0 127 -151v-256q0 -28 29 -37
t29 -15z" />
    <glyph glyph-name="o" unicode="o" horiz-adv-x="591" 
d="M559 229q0 -102 -82 -171q-78 -66 -182 -66q-103 0 -181 66q-83 69 -83 171t82 172q78 66 182 66q105 0 183 -66q81 -70 81 -172zM367 229q0 93 -5 126q-15 87 -67 87q-51 0 -66 -87q-6 -33 -6 -126t6 -126q15 -87 66 -87q52 0 67 87q5 33 5 126z" />
    <glyph glyph-name="p" unicode="p" horiz-adv-x="588" 
d="M576 257q0 -108 -73 -186.5t-180 -78.5q-38 0 -74 10v-150q0 -27 29 -36.5t29 -15.5l-11 -10h-264l-11 10q0 6 29 15.5t29 36.5v496q0 29 -17 46q-10 9 -32 17q-17 7 -17 13q0 7 53 11q88 8 183 32v-63q69 63 150 63q86 0 134 -63q43 -58 43 -147zM394 223q0 66 -16 112
q-24 69 -77 69q-28 0 -52 -22v-265q0 -107 67 -107q54 0 70 86q8 38 8 127z" />
    <glyph glyph-name="q" unicode="q" 
d="M570 -200l-11 -10h-264l-11 10q0 6 29 15.5t29 36.5v176q-55 -36 -121 -36q-102 0 -156.5 58.5t-54.5 161.5q0 109 82 183q79 72 190 72q78 0 157 -35l73 51v-631q0 -27 29 -36.5t29 -15.5zM342 58v338q0 52 -58 52q-92 0 -92 -178q0 -222 114 -222q16 0 36 10z" />
    <glyph glyph-name="r" unicode="r" horiz-adv-x="453" 
d="M440 387q0 -35 -21 -58.5t-55 -23.5q-29 0 -53.5 25.5t-36.5 25.5q-25 0 -25 -43v-253q0 -28 29 -36.5t29 -15.5q0 -10 -11 -10h-264q-11 0 -11 10q0 7 29 15.5t29 36.5v288q0 29 -17 46q-10 9 -32 17q-17 7 -17 13q0 7 49 11q87 8 179 32v-109h2q25 55 40 74
q29 35 73 35q37 0 60.5 -21.5t23.5 -58.5z" />
    <glyph glyph-name="s" unicode="s" horiz-adv-x="432" 
d="M413 162q0 -76 -67 -125q-61 -45 -140 -45q-108 0 -186 33v164q0 14 12 14q7 0 17 -31q6 -20 12 -39q50 -123 148 -123q86 0 86 69q0 42 -71 69q-131 49 -132 50q-71 40 -71 112q0 71 61 116q56 41 130 41q73 0 164 -30v-126q0 -12 -10 -17q-16 17 -37 62.5t-39 63.5
q-30 28 -83 28q-30 0 -53 -14q-25 -17 -25 -46q0 -34 74 -61q120 -44 136 -53q74 -42 74 -112z" />
    <glyph glyph-name="t" unicode="t" horiz-adv-x="371" 
d="M372 110q-1 -55 -59 -89q-50 -29 -108 -29q-144 0 -144 118v292h-62q149 109 232 210v-153h121l-21 -57h-100v-292q0 -66 46 -66q32 0 52 29q32 46 34 48z" />
    <glyph glyph-name="u" unicode="u" horiz-adv-x="641" 
d="M617 22q0 -7 -48 -10q-95 -4 -188 -20v57q-42 -33 -77 -45t-88 -12q-134 0 -134 197q0 32 3.5 86.5t3.5 72.5q0 29 -17 46q-9 9 -32 17q-17 7 -17 13q0 7 49 11q91 8 187 32v-364q0 -61 47 -61q33 0 75 40v266q0 29 -17 46q-9 9 -32 17q-17 7 -17 13q0 7 49 11
q91 8 187 32v-369q0 -29 17 -46q10 -9 32 -17q17 -7 17 -13z" />
    <glyph glyph-name="v" unicode="v" horiz-adv-x="548" 
d="M539 453q0 -6 -7 -10q-47 -26 -85 -110q-40 -94 -80 -187q-68 -154 -87 -154t-105 184l-102 224q-6 12 -31 30.5t-25 20.5l15 10h237q10 0 16 -10q0 -6 -16 -13.5t-16 -21.5q0 -15 48 -120q27 -56 53 -112q19 43 38 85q21 53 21 92q0 45 -20 64q-2 2 -21 11q-15 8 -15 13
q0 12 13 12h156z" />
    <glyph glyph-name="w" unicode="w" horiz-adv-x="792" 
d="M803 449q0 -6 -18 -13q-11 -5 -23 -10q-33 -19 -56 -67l-90 -196q-77 -165 -92 -171q-16 5 -72 137q-32 80 -65 160q-35 -80 -71 -159q-61 -132 -75 -138q-8 7 -18 16l-173 386q-7 16 -35 38q-25 19 -25 20l18 9h241l15 -10q0 -6 -18 -15t-18 -24q0 -8 88 -213l59 118
l-37 88q-4 9 -24.5 28l-20.5 19l17 9h226l19 -11q0 -5 -18 -14t-18 -25q0 -22 37 -109q23 -54 47 -108q21 45 43 89q24 56 24 96q0 27 -14 42q-8 9 -23.5 16t-15.5 12l15 12h153z" />
    <glyph glyph-name="x" unicode="x" horiz-adv-x="612" 
d="M594 5l-12 -7h-299l-12 9q0 7 23 12t23 25t-38 78q-24 36 -49 72q-32 -59 -32 -60q-18 -37 -18 -65q0 -25 15 -38q8 -7 26 -13q15 -5 15 -10q0 -10 -14 -10h-194l-10 10q0 5 18 12l24 8q43 19 89 80q36 51 71 101l-112 175q-13 20 -47 43q-30 19 -30 25q0 9 18 9h271
q15 0 15 -9t-19.5 -13t-19.5 -16q0 -6 66 -110q33 48 33 81q0 31 -25.5 44t-25.5 17q0 6 13 6h187l13 -8q0 -6 -15 -12l-22 -6q-41 -17 -81 -62l-67 -76l163 -246q5 -8 32 -26t27 -20z" />
    <glyph glyph-name="y" unicode="y" horiz-adv-x="536" 
d="M544 453q0 -4 -6 -8q-54 -36 -83 -103l-188 -428q-29 -65 -55 -97q-41 -49 -94 -49q-35 0 -58.5 22t-23.5 57q0 32 21 53.5t53 21.5q29 0 47 -18q9 -8 23 -32q11 -18 19 -18q16 0 43 55q15 36 30 71l-196 417q-6 12 -31 31.5t-25 21.5l15 11h237q16 0 16 -10
q0 -7 -16 -14t-16 -23q0 -15 47 -121q27 -60 54 -119q19 44 39 89q20 54 20 94q0 48 -21 69q-2 2 -18.5 11t-16.5 13l14 11h159z" />
    <glyph glyph-name="z" unicode="z" horiz-adv-x="530" 
d="M511 461l-290 -445q113 6 192 81q24 23 44 60q32 58 36 64t8 6l9 -9q-4 -23 -44 -220q-222 3 -447 0l290 444q-80 0 -149 -54q-62 -48 -102 -125l-8 10l45 188q208 -3 416 0z" />
    <glyph glyph-name="braceleft" unicode="{" horiz-adv-x="348" 
d="M321 -232q-132 0 -185 49q-42 40 -42 119q0 30 7.5 91t7.5 89q0 101 -82 127v19q81 23 81 123q0 28 -7.5 89.5t-7.5 91.5q0 81 43 121q53 50 185 50v-18q-75 -23 -75 -150q0 -25 3.5 -77.5t3.5 -78.5q0 -136 -85 -159v-3q85 -23 85 -159q0 -26 -3.5 -78.5t-3.5 -77.5
q0 -127 75 -150v-18z" />
    <glyph glyph-name="bar" unicode="|" horiz-adv-x="262" 
d="M191 0h-120v737h120v-737z" />
    <glyph glyph-name="braceright" unicode="}" horiz-adv-x="371" 
d="M332 243q-81 -23 -81 -123q0 -28 7.5 -89.5t7.5 -91.5q0 -81 -42 -121q-54 -50 -186 -50v18q75 23 75 150q0 25 -3.5 77.5t-3.5 78.5q0 136 85 159v3q-85 23 -85 159q0 26 3.5 78.5t3.5 77.5q0 127 -75 150v18q132 0 185 -49q43 -40 43 -119q0 -30 -7.5 -91t-7.5 -89
q0 -101 81 -127v-19z" />
    <glyph glyph-name="asciitilde" unicode="~" horiz-adv-x="511" 
d="M463 218q-55 -78 -113 -78q-33 0 -94 31.5t-100 31.5q-45 0 -76 -67l-33 103q43 79 113 79q37 0 103.5 -30.5t87.5 -30.5q39 0 79 65z" />
    <glyph glyph-name="nonbreakingspace" unicode="&#xa0;" horiz-adv-x="299" 
 />
    <glyph glyph-name="exclamdown" unicode="&#xa1;" horiz-adv-x="370" 
d="M290 371q0 -44 -31 -75t-74 -31q-44 0 -74.5 31t-30.5 75q0 43 31 74.5t74 31.5t74 -31.5t31 -74.5zM292 -108q0 -50 -28 -85q-31 -39 -79 -39t-79 39q-28 35 -28 85q0 60 47 172t47 155q0 25 13 25t13 -25q0 -43 47 -155t47 -172z" />
    <glyph glyph-name="cent" unicode="&#xa2;" horiz-adv-x="522" 
d="M452 275q0 -58 -62 -103q-58 -43 -122 -43q-18 0 -34 4l-52 -133h-34l56 139q-59 20 -97 75.5t-38 119.5q0 90 62 158t151 68q39 0 87 -20l48 112h31l-51 -127q54 -44 54 -101q0 -32 -20 -57t-52 -25q-33 0 -50 18l-44 -102q21 -20 67 -20q43 0 67 24q12 13 24 25z
M320 501q0 34 -39 34q-36 0 -55 -43q-15 -33 -15 -74q0 -97 49 -143l48 112q-5 14 -5 33q0 15 8.5 41t8.5 40z" />
    <glyph glyph-name="sterling" unicode="&#xa3;" horiz-adv-x="563" 
d="M573 234q0 -91 -41 -160q-48 -82 -132 -82q-65 0 -151 68q-46 -68 -115 -68q-48 0 -75 27.5t-27 75.5q0 65 56 99q48 29 119 29q32 0 61 -6q-12 21 -67 57q-61 40 -77 59h-133v57h86q-23 40 -23 84q0 87 60 153t147 66q32 0 77.5 -18t54.5 -18q16 0 18.5 23t13.5 23
q9 -9 25 -107q15 -92 16 -126l-12 -13q-17 18 -47 81t-57 89q-41 42 -105 42q-33 0 -51 -20t-18 -53q0 -37 28 -76q16 -21 62 -66q42 -41 58 -64h125v-57h-106l3 -26q0 -40 -26 -98q67 -37 117 -37q52 0 77 16q17 11 27 35.5t18 31.5q14 -6 14 -21zM227 71q-59 66 -118 66
q-23 0 -37 -17t-14 -40q0 -31 24 -48q21 -16 54 -16q47 0 91 55z" />
    <glyph glyph-name="currency" unicode="&#xa4;" horiz-adv-x="569" 
d="M545 142l-63 -63l-57 57q-63 -44 -140 -44t-140 44l-57 -57l-63 63l57 58q-45 62 -45 142q0 79 45 143l-57 57l63 64l57 -58q62 45 140 45t140 -45l57 58l63 -64l-57 -57q45 -64 45 -143q0 -80 -45 -142zM419 342q0 57 -38.5 98.5t-95.5 41.5t-95.5 -41.5t-38.5 -98.5
t38.5 -98t95.5 -41q56 0 95 41t39 98z" />
    <glyph glyph-name="yen" unicode="&#xa5;" horiz-adv-x="705" 
d="M710 677q0 -4 -25 -17q-30 -15 -31 -16q-49 -36 -98 -121l-58 -99h118v-56h-152l-8 -13v-60h160v-57h-160v-163q0 -30 22 -41q8 -4 40 -9q22 -4 22 -15l-15 -12h-338l-15 12q0 11 21 15q33 5 41 9q22 11 22 41v163h-160v57h160v29l-25 44h-135v56h102l-118 203
q-17 28 -39 33q-36 7 -40.5 9.5t-4.5 7.5l17 10h326q26 0 26 -11q0 -5 -33.5 -15t-33.5 -36q0 -18 59 -132q37 -68 73 -135q34 58 68 115q48 87 48 131q0 30 -17 44q-10 8 -32 14q-17 5 -17 12q0 13 32 13h174q18 0 24 -10z" />
    <glyph glyph-name="brokenbar" unicode="&#xa6;" horiz-adv-x="256" 
d="M188 457h-120v280h120v-280zM188 0h-120v281h120v-281z" />
    <glyph glyph-name="section" unicode="&#xa7;" horiz-adv-x="532" 
d="M496 303q0 -45 -34.5 -88.5t-78.5 -55.5q91 -58 91 -134q0 -74 -71 -115q-58 -33 -138 -33q-32 0 -89.5 17t-84.5 17q-16 0 -26 -12t-16 -12q-5 0 -9 8t-4 13v173l12 13q8 -1 18 -27l12 -36q60 -130 166 -130q32 0 57 18t25 49q0 42 -72 86q-130 78 -135 82
q-72 57 -72 131q0 53 36.5 94.5t89.5 52.5v2q-47 37 -67 61q-32 40 -32 83q0 72 60 109q50 32 126 32q26 0 74 -13t71 -13q9 0 38 18q10 -5 10 -19v-148l-10 -15q-7 0 -21 40q-17 49 -19 52q-42 74 -127 74q-24 0 -45 -14t-21 -37q0 -46 74 -92q131 -81 138 -87
q74 -61 74 -144zM388 229q0 49 -73 99q-58 35 -116 69q-44 -14 -44 -57q0 -42 87 -98q62 -34 123 -69q23 25 23 56z" />
    <glyph glyph-name="dieresis" unicode="&#xa8;" horiz-adv-x="388" 
d="M373 607q0 -30 -20.5 -51t-50.5 -21q-29 0 -50 21t-21 51t21 51t50 21q30 0 50.5 -21t20.5 -51zM157 607q0 -30 -20.5 -51t-50.5 -21q-29 0 -50 21t-21 51t21 51t50 21q30 0 50.5 -21t20.5 -51z" />
    <glyph glyph-name="copyright" unicode="&#xa9;" horiz-adv-x="746" 
d="M721 341q0 -153 -98 -255t-250 -102t-250 102t-98 255t98 256.5t250 103.5t250 -103.5t98 -256.5zM625 343q0 117 -66 199q-72 88 -186 88t-185 -88q-67 -82 -67 -199q0 -116 67 -198q71 -88 185 -88t185 88q67 82 67 198zM545 267l-17 -87q-65 -35 -131 -35
q-105 0 -164 50q-63 54 -63 157t63 157q59 51 164 51q81 0 130 -32v-84h-30q-30 91 -94 91q-89 0 -89 -183q0 -182 89 -182q68 0 111 97h31z" />
    <glyph glyph-name="ordfeminine" unicode="&#xaa;" horiz-adv-x="365" 
d="M350 458q-1 -22 -37 -38q-30 -12 -55 -12q-55 0 -69 35q-47 -35 -98 -35q-30 0 -51 13q-25 15 -25 43q0 41 68 71l102 34v80q0 26 -20 26q-36 0 -36 -31q0 -6 1.5 -19t1.5 -19q0 -46 -56 -46q-50 0 -50 37q0 42 72 72q59 24 108 24q97 0 97 -76v-164q0 -11 12 -11
q7 0 15 9q11 13 13 14zM185 459v93q-52 -19 -52 -61q0 -46 27 -46q11 0 25 14z" />
    <glyph glyph-name="guillemotleft" unicode="&#xab;" horiz-adv-x="441" 
d="M401 53q0 -12 -10 -12q-11 0 -97.5 90.5t-86.5 97.5q0 8 86 98t98 90q10 0 10 -11q0 -13 -40 -90q-23 -44 -46 -87l46 -86q40 -77 40 -90zM235 53q0 -12 -10 -12q-11 0 -97.5 90.5t-86.5 97.5q0 8 86 98t98 90q10 0 10 -11q0 -13 -40 -90q-23 -44 -46 -87l46 -86
q40 -77 40 -90z" />
    <glyph glyph-name="logicalnot" unicode="&#xac;" horiz-adv-x="556" 
d="M505 70h-120v198h-334v121h454v-319z" />
    <glyph glyph-name="minus" unicode="&#xad;" horiz-adv-x="542" 
d="M498 167h-454v120h454v-120z" />
    <glyph glyph-name="minus" unicode="&#x2212;" horiz-adv-x="542" 
d="M498 167h-454v120h454v-120z" />
    <glyph glyph-name="registered" unicode="&#xae;" horiz-adv-x="746" 
d="M721 341q0 -153 -98 -255t-250 -102t-250 102t-98 255t98 256.5t250 103.5t250 -103.5t98 -256.5zM625 343q0 117 -66 199q-72 88 -186 88t-185 -88q-67 -82 -67 -199q0 -116 67 -198q71 -88 185 -88t185 88q67 82 67 198zM560 157h-92q-17 0 -56 75q-23 48 -47 95h-16
v-106q0 -26 7.5 -32.5t35.5 -7.5v-24h-189v24q24 1 30 8.5t6 31.5v260q0 24 -6 31.5t-30 8.5v24h216q51 0 81 -26.5t30 -76.5q0 -34 -22 -62t-55 -42l107 -155v-26zM412 438q0 27 -8 51q-11 32 -32 32h-23v-170h18q45 0 45 87z" />
    <glyph glyph-name="macron" unicode="&#xaf;" horiz-adv-x="382" 
d="M363 568h-344v80h344v-80z" />
    <glyph glyph-name="macron" unicode="&#x2c9;" horiz-adv-x="382" 
d="M363 568h-344v80h344v-80z" />
    <glyph glyph-name="degree" unicode="&#xb0;" horiz-adv-x="353" 
d="M319 548q0 -60 -41.5 -102t-101.5 -42q-59 0 -101 42t-42 102t41.5 102.5t101.5 42.5t101.5 -42.5t41.5 -102.5zM255 548q0 33 -23 58.5t-56 25.5t-56 -25.5t-23 -58.5t23.5 -58t55.5 -25q33 0 56 25t23 58z" />
    <glyph glyph-name="plusminus" unicode="&#xb1;" horiz-adv-x="559" 
d="M507 254h-167v-88h-120v88h-167v121h167v84h120v-84h167v-121zM507 0h-454v121h454v-121z" />
    <glyph glyph-name="twosuperior" unicode="&#xb2;" horiz-adv-x="405" 
d="M371 416q-2 -11 -24 -61.5t-27 -77.5h-285q10 58 61 107q43 36 87 71q44 40 44 81q0 35 -25.5 55.5t-61.5 20.5t-54 -21q-27 -31 -33 -34l-8 8q1 52 57 92q51 36 105 36t97 -31q49 -34 49 -86q0 -67 -52 -106q-28 -21 -104 -48q-65 -23 -80 -44h169q28 0 45 11
q10 7 19 22q7 12 12 12z" />
    <glyph glyph-name="threesuperior" unicode="&#xb3;" horiz-adv-x="406" 
d="M374 415q0 -62 -65 -105q-59 -39 -124 -39q-55 0 -97 18q-57 24 -57 72q0 21 16.5 36t37.5 15q47 0 58 -32q4 -29 10 -60t45 -31q29 0 51.5 17t22.5 45q0 59 -46 95q-42 34 -102 34l-9 9q2 7 28 9q33 2 47 11q24 14 24 53q0 27 -19 47.5t-46 20.5q-31 0 -52 -19
q-10 -9 -21 -19l-7 8q1 38 53 67q46 26 86 26q49 0 86.5 -29t37.5 -76q0 -36 -30 -61q72 -41 72 -112z" />
    <glyph glyph-name="acute" unicode="&#xb4;" horiz-adv-x="261" 
d="M255 669q0 -29 -35 -50l-152 -90h-61l125 153q30 37 67 37q23 0 39.5 -13.5t16.5 -36.5z" />
    <glyph glyph-name="mu" unicode="&#xb5;" horiz-adv-x="664" 
d="M629 22q0 -7 -53 -10q-91 -4 -183 -20v57q-66 -53 -122 -53q0 -14 1.5 -45.5t1.5 -47.5q0 -135 -87 -135q-93 0 -93 196q0 37 3.5 95.5t3.5 71.5v217q0 29 -17 45q-10 9 -32 18q-17 7 -17 13q0 7 53 11q88 8 183 32v-364q0 -61 47 -61q33 0 75 40v266q0 29 -17 45
q-10 9 -32 18q-17 7 -17 13q0 7 53 11q88 8 183 32v-369q0 -29 17 -45q10 -9 32 -18q17 -7 17 -13z" />
    <glyph glyph-name="mu" unicode="&#x3bc;" horiz-adv-x="664" 
d="M629 22q0 -7 -53 -10q-91 -4 -183 -20v57q-66 -53 -122 -53q0 -14 1.5 -45.5t1.5 -47.5q0 -135 -87 -135q-93 0 -93 196q0 37 3.5 95.5t3.5 71.5v217q0 29 -17 45q-10 9 -32 18q-17 7 -17 13q0 7 53 11q88 8 183 32v-364q0 -61 47 -61q33 0 75 40v266q0 29 -17 45
q-10 9 -32 18q-17 7 -17 13q0 7 53 11q88 8 183 32v-369q0 -29 17 -45q10 -9 32 -18q17 -7 17 -13z" />
    <glyph glyph-name="paragraph" unicode="&#xb6;" horiz-adv-x="563" 
d="M544 657q-44 -5 -55 -12q-16 -11 -16 -49v-719h-120v777h-59v-777h-120v393q-78 0 -120 72q-35 59 -35 143q0 108 50 154t159 46h316v-28z" />
    <glyph glyph-name="periodcentered" unicode="&#xb7;" horiz-adv-x="267" 
d="M239 229q0 -43 -31 -74.5t-74 -31.5q-44 0 -74.5 31.5t-30.5 74.5q0 44 30.5 75t74.5 31q43 0 74 -31t31 -75z" />
    <glyph glyph-name="periodcentered" unicode="&#x2219;" horiz-adv-x="267" 
d="M239 229q0 -43 -31 -74.5t-74 -31.5q-44 0 -74.5 31.5t-30.5 74.5q0 44 30.5 75t74.5 31q43 0 74 -31t31 -75z" />
    <glyph glyph-name="cedilla" unicode="&#xb8;" horiz-adv-x="261" 
d="M247 -137q0 -91 -136 -91q-62 0 -97 20l15 37q39 -13 62 -13q54 0 54 40q0 15 -12.5 25t-27.5 10q-18 0 -26 -5l-18 10l50 104h44l-34 -69q22 4 39 4q35 0 61 -19t26 -53z" />
    <glyph glyph-name="onesuperior" unicode="&#xb9;" horiz-adv-x="318" 
d="M296 284q-6 -9 -13 -9h-248q-8 0 -12 9q3 3 40 13q27 7 27 24v288q0 8 -33.5 10.5t-33.5 12.5q0 11 50 16q90 10 155 45v-372q0 -17 27 -24q38 -11 41 -13z" />
    <glyph glyph-name="ordmasculine" unicode="&#xba;" horiz-adv-x="381" 
d="M362 550q0 -63 -56 -104q-51 -38 -116 -38t-116 38q-56 41 -56 104t56 105q51 38 116 38q66 0 117 -38q55 -42 55 -105zM236 550q0 55 -3 75q-10 50 -43 50t-42 -50q-4 -19 -4 -75q0 -59 3 -75q9 -49 43 -49t43 49q3 18 3 75z" />
    <glyph glyph-name="guillemotright" unicode="&#xbb;" horiz-adv-x="418" 
d="M389 229q0 -7 -86.5 -97.5t-97.5 -90.5q-10 0 -10 12q0 13 40 90l46 86q-23 43 -46 87q-40 77 -40 90q0 11 10 11q12 0 98 -90t86 -98zM223 229q0 -7 -86.5 -97.5t-97.5 -90.5q-10 0 -10 12q0 13 40 90l46 86q-23 43 -46 87q-40 77 -40 90q0 11 10 11q12 0 98 -90t86 -98
z" />
    <glyph glyph-name="onequarter" unicode="&#xbc;" horiz-adv-x="877" 
d="M861 158l-17 -51h-54v-58q0 -27 23 -31q27 -5 30 -11q-4 -9 -12 -9h-212q-8 0 -12 9q3 6 30 11q23 4 23 31v58h-152l-23 32l211 277h94v-258h71zM697 693l-397 -701h-104l397 701h104zM288 284q-5 -9 -13 -9h-248q-7 0 -12 9q4 3 41 13q26 7 26 24v288q0 8 -33.5 10.5
t-33.5 12.5q0 11 50 16q91 10 155 45v-372q0 -17 27 -24q39 -11 41 -13zM660 158v165h-2l-123 -165h125z" />
    <glyph glyph-name="onehalf" unicode="&#xbd;" horiz-adv-x="876" 
d="M861 139q-2 -11 -24 -61.5t-27 -77.5h-285q10 58 61 107q43 36 87 72q44 40 44 81q0 35 -26 55t-61 20q-36 0 -54 -21q-27 -31 -33 -34l-8 8q0 52 57 92q51 36 105 36t97 -31q49 -34 49 -86q0 -67 -52 -106q-28 -21 -104 -47q-65 -23 -80 -45h169q28 0 45 11q10 7 19 22
q7 12 12 12zM686 693l-397 -701h-104l397 701h104zM289 284q-6 -9 -13 -9h-248q-8 0 -12 9q3 3 40 13q27 7 27 24v288q0 8 -33.5 10.5t-33.5 12.5q0 11 50 16q90 10 155 45v-372q0 -17 27 -24q38 -11 41 -13z" />
    <glyph glyph-name="threequarters" unicode="&#xbe;" horiz-adv-x="953" 
d="M918 158l-17 -51h-54v-58q0 -27 23 -31q28 -5 30 -11q-4 -9 -12 -9h-212q-8 0 -12 9q3 6 30 11q23 4 23 31v58h-152l-23 32l211 277h94v-258h71zM742 693l-397 -701h-104l397 701h104zM377 415q0 -62 -65 -105q-59 -39 -124 -39q-55 0 -97 18q-57 24 -57 72q0 21 16.5 36
t37.5 15q47 0 58 -32q4 -29 10 -60t45 -31q29 0 51.5 17t22.5 45q0 59 -46 95q-42 34 -102 34l-9 9q2 7 28 9q33 2 47 11q24 14 24 53q0 27 -19 47.5t-46 20.5q-31 0 -52 -19q-10 -9 -21 -19l-7 8q1 38 53 67q46 26 86 26q49 0 86.5 -29t37.5 -76q0 -36 -30 -61
q72 -41 72 -112zM717 158v165h-2l-123 -165h125z" />
    <glyph glyph-name="questiondown" unicode="&#xbf;" horiz-adv-x="448" 
d="M385 371q0 -44 -31 -75t-74 -31q-44 0 -74.5 31t-30.5 75q0 43 31 74.5t74 31.5t74 -31.5t31 -74.5zM432 -99q0 -63 -61 -101q-51 -32 -118 -32q-100 0 -167 59q-70 62 -70 160q0 94 52.5 147t141.5 53q21 0 43 -3l-2 46l47 -7q13 -90 51 -171l-55 -39q-32 31 -85 31
q-56 0 -93.5 -38t-37.5 -94q0 -39 26 -68.5t64 -29.5q45 0 72 43q20 39 41 78q27 43 72 43q35 0 57 -21t22 -56z" />
    <glyph glyph-name="Agrave" unicode="&#xc0;" horiz-adv-x="739" 
d="M470 724h-61l-152 90q-35 21 -35 50q0 23 16.5 36.5t39.5 13.5q37 0 67 -37zM751 8q0 -10 -19 -10h-326l-13 10q0 10 34 13.5t34 32.5q0 13 -64 186h-194q-32 -85 -32 -120q0 -56 34 -81q2 -2 32 -15q24 -12 24 -17l-16 -9h-246l-12 10q65 20 105 67q30 36 59 110
q136 337 136 342q0 31 -46 40q27 4 93 57t76 81q5 -5 11 -15l239 -598q18 -45 46 -62q1 0 27 -8q18 -6 18 -14zM390 265l-87 230l-92 -230h179z" />
    <glyph glyph-name="Aacute" unicode="&#xc1;" horiz-adv-x="739" 
d="M553 864q0 -29 -35 -50l-152 -90h-61l125 153q31 37 67 37q24 0 40 -13.5t16 -36.5zM751 8q0 -10 -19 -10h-326l-13 10q0 10 34 13.5t34 32.5q0 13 -64 186h-194q-32 -85 -32 -120q0 -56 34 -81q2 -2 32 -15q24 -12 24 -17l-16 -9h-246l-12 10q65 20 105 67q30 36 59 110
q136 337 136 342q0 31 -46 40q27 4 93 57t76 81q5 -5 11 -15l239 -598q18 -45 46 -62q1 0 27 -8q18 -6 18 -14zM390 265l-87 230l-92 -230h179z" />
    <glyph glyph-name="Acircumflex" unicode="&#xc2;" horiz-adv-x="739" 
d="M562 724h-66l-110 97l-110 -97h-64l121 180h106zM751 8q0 -10 -19 -10h-326l-13 10q0 10 34 13.5t34 32.5q0 13 -64 186h-194q-32 -85 -32 -120q0 -56 34 -81q2 -2 32 -15q24 -12 24 -17l-16 -9h-246l-12 10q65 20 105 67q30 36 59 110q136 337 136 342q0 31 -46 40
q27 4 93 57t76 81q5 -5 11 -15l239 -598q18 -45 46 -62q1 0 27 -8q18 -6 18 -14zM390 265l-87 230l-92 -230h179z" />
    <glyph glyph-name="Atilde" unicode="&#xc3;" horiz-adv-x="739" 
d="M578 881q-17 -64 -38 -93q-31 -44 -87 -44q-36 0 -90 26.5t-74 26.5q-39 0 -46 -50h-47q34 137 120 137q30 0 91 -25.5t76 -25.5q35 0 45 48h50zM751 8q0 -10 -19 -10h-326l-13 10q0 10 34 13.5t34 32.5q0 13 -64 186h-194q-32 -85 -32 -120q0 -56 34 -81q2 -2 32 -15
q24 -12 24 -17l-16 -9h-246l-12 10q65 20 105 67q30 36 59 110q136 337 136 342q0 31 -46 40q27 4 93 57t76 81q5 -5 11 -15l239 -598q18 -45 46 -62q1 0 27 -8q18 -6 18 -14zM390 265l-87 230l-92 -230h179z" />
    <glyph glyph-name="Adieresis" unicode="&#xc4;" horiz-adv-x="739" 
d="M566 802q0 -30 -20.5 -51t-50.5 -21q-29 0 -50 21t-21 51t21 51t50 21q30 0 50.5 -21t20.5 -51zM350 802q0 -30 -20.5 -51t-50.5 -21q-29 0 -50 21t-21 51t21 51t50 21q30 0 50.5 -21t20.5 -51zM751 8q0 -10 -19 -10h-326l-13 10q0 10 34 13.5t34 32.5q0 13 -64 186h-194
q-32 -85 -32 -120q0 -56 34 -81q2 -2 32 -15q24 -12 24 -17l-16 -9h-246l-12 10q65 20 105 67q30 36 59 110q136 337 136 342q0 31 -46 40q27 4 93 57t76 81q5 -5 11 -15l239 -598q18 -45 46 -62q1 0 27 -8q18 -6 18 -14zM390 265l-87 230l-92 -230h179z" />
    <glyph glyph-name="Aring" unicode="&#xc5;" horiz-adv-x="739" 
d="M470 825q0 -44 -31.5 -76t-76.5 -32q-44 0 -76 31.5t-32 76.5t32 77t76 32q45 0 76.5 -32.5t31.5 -76.5zM751 8q0 -10 -19 -10h-326l-13 10q0 10 34 13.5t34 32.5q0 13 -64 186h-194q-32 -85 -32 -120q0 -56 34 -81q2 -2 32 -15q24 -12 24 -17l-16 -9h-246l-12 10
q65 20 105 67q30 36 59 110q136 337 136 342q0 31 -46 40q27 4 93 57t76 81q5 -5 11 -15l239 -598q18 -45 46 -62q1 0 27 -8q18 -6 18 -14zM414 825q0 22 -15 37.5t-37 15.5t-37 -15.5t-15 -37.5t15.5 -37t36.5 -15q22 0 37 15t15 37zM390 265l-87 230l-92 -230h179z" />
    <glyph glyph-name="AE" unicode="&#xc6;" horiz-adv-x="1096" 
d="M1091 260q-4 -52 -22 -132l-30 -130h-583l-15 12q-1 11 21 15q32 5 41 9q22 11 22 41v274h-182q-71 -116 -75 -123q-50 -91 -50 -128q0 -41 22 -59q12 -10 41 -16q22 -5 22 -14l-16 -11h-270l-11 10q-1 2 47 30q53 32 69 46q71 63 206 280q133 212 133 254q0 25 -20 34
q-7 3 -36 8q-20 4 -19 14l20 13h587l69 -230l-11 -12q-39 59 -96 135q-85 80 -230 83v-289q57 0 89 23q26 17 44.5 57t36.5 80l10 -13v-331l-10 -13q-17 42 -34 83q-18 45 -43 64q-32 25 -93 25v-262q0 -37 17 -51t55 -14q100 0 169 62q46 42 80 117q31 67 35 68zM525 374
v278h-2l-167 -278h169z" />
    <glyph glyph-name="Ccedilla" unicode="&#xc7;" horiz-adv-x="702" 
d="M673 19q0 -4 -3.5 -11.5t-7.5 -7.5q-9 0 -16.5 18.5t-21.5 18.5q-36 0 -111.5 -26.5t-117.5 -26.5h-10l-26 -53q21 4 39 4q35 0 59 -18q28 -20 28 -54q0 -91 -136 -91q-62 0 -97 20l15 37q39 -13 62 -13q54 0 54 40q0 15 -12.5 25t-27.5 10q-18 0 -26 -5l-18 10l43 91
q-140 16 -226.5 112t-86.5 243q0 153 104 256t258 103q57 0 132 -31.5t92 -31.5q18 0 25 23.5t17 23.5q14 0 14 -20v-242l-9 -18q-6 0 -33 56q-16 35 -32 69q-88 147 -193 147q-155 0 -155 -335q0 -138 19 -207q35 -127 136 -127q59 0 123 51q54 44 89 103q11 25 21 51
q18 40 25 40l11 -16v-218z" />
    <glyph glyph-name="Egrave" unicode="&#xc8;" horiz-adv-x="686" 
d="M429 736h-61l-152 90q-35 21 -35 50q0 23 16.5 36.5t39.5 13.5q37 0 67 -37zM670 260q-4 -52 -22 -132l-30 -130h-587l-15 12q0 12 22 15q32 5 40 9q22 11 22 41v535q0 30 -22 41q-7 4 -40 8q-22 4 -22 16l15 12h545l69 -230l-11 -12q-39 59 -96 135q-84 80 -238 83v-289
q67 0 99 26q21 18 37 62q19 52 34 72l10 -13v-331l-10 -13q-16 21 -33 75q-15 48 -36 68q-32 29 -101 29v-262q0 -38 17.5 -51.5t56.5 -13.5q102 0 171 62q47 42 81 117q31 67 34 68z" />
    <glyph glyph-name="Eacute" unicode="&#xc9;" horiz-adv-x="686" 
d="M512 876q0 -29 -35 -50l-152 -90h-61l125 153q30 37 67 37q23 0 39.5 -13.5t16.5 -36.5zM670 260q-4 -52 -22 -132l-30 -130h-587l-15 12q0 12 22 15q32 5 40 9q22 11 22 41v535q0 30 -22 41q-7 4 -40 8q-22 4 -22 16l15 12h545l69 -230l-11 -12q-39 59 -96 135
q-84 80 -238 83v-289q67 0 99 26q21 18 37 62q19 52 34 72l10 -13v-331l-10 -13q-16 21 -33 75q-15 48 -36 68q-32 29 -101 29v-262q0 -38 17.5 -51.5t56.5 -13.5q102 0 171 62q47 42 81 117q31 67 34 68z" />
    <glyph glyph-name="Ecircumflex" unicode="&#xca;" horiz-adv-x="686" 
d="M521 736h-66l-110 97l-110 -97h-64l121 180h106zM670 260q-4 -52 -22 -132l-30 -130h-587l-15 12q0 12 22 15q32 5 40 9q22 11 22 41v535q0 30 -22 41q-7 4 -40 8q-22 4 -22 16l15 12h545l69 -230l-11 -12q-39 59 -96 135q-84 80 -238 83v-289q67 0 99 26q21 18 37 62
q19 52 34 72l10 -13v-331l-10 -13q-16 21 -33 75q-15 48 -36 68q-32 29 -101 29v-262q0 -38 17.5 -51.5t56.5 -13.5q102 0 171 62q47 42 81 117q31 67 34 68z" />
    <glyph glyph-name="Edieresis" unicode="&#xcb;" horiz-adv-x="686" 
d="M525 814q0 -30 -20.5 -51t-50.5 -21q-29 0 -50 21t-21 51t21 51t50 21q30 0 50.5 -21t20.5 -51zM309 814q0 -30 -20.5 -51t-50.5 -21q-29 0 -50 21t-21 51t21 51t50 21q30 0 50.5 -21t20.5 -51zM670 260q-4 -52 -22 -132l-30 -130h-587l-15 12q0 12 22 15q32 5 40 9
q22 11 22 41v535q0 30 -22 41q-7 4 -40 8q-22 4 -22 16l15 12h545l69 -230l-11 -12q-39 59 -96 135q-84 80 -238 83v-289q67 0 99 26q21 18 37 62q19 52 34 72l10 -13v-331l-10 -13q-16 21 -33 75q-15 48 -36 68q-32 29 -101 29v-262q0 -38 17.5 -51.5t56.5 -13.5
q102 0 171 62q47 42 81 117q31 67 34 68z" />
    <glyph glyph-name="Igrave" unicode="&#xcc;" horiz-adv-x="451" 
d="M309 736h-61l-152 90q-35 21 -35 50q0 23 16.5 36.5t39.5 13.5q36 0 67 -37zM410 10q0 -12 -15 -12h-338q-15 0 -15 12t21 15q33 5 41 9q22 11 22 41v535q0 30 -22 41q-8 3 -41 8q-21 4 -21 16t15 12h338q15 0 15 -12t-22 -16q-33 -5 -41 -8q-21 -11 -21 -41v-535
q0 -30 21 -41q8 -4 41 -9q22 -3 22 -15z" />
    <glyph glyph-name="Iacute" unicode="&#xcd;" horiz-adv-x="451" 
d="M392 876q0 -29 -35 -50l-152 -90h-61l125 153q30 37 67 37q23 0 39.5 -13.5t16.5 -36.5zM410 10q0 -12 -15 -12h-338q-15 0 -15 12t21 15q33 5 41 9q22 11 22 41v535q0 30 -22 41q-8 3 -41 8q-21 4 -21 16t15 12h338q15 0 15 -12t-22 -16q-33 -5 -41 -8q-21 -11 -21 -41
v-535q0 -30 21 -41q8 -4 41 -9q22 -3 22 -15z" />
    <glyph glyph-name="Icircumflex" unicode="&#xce;" horiz-adv-x="451" 
d="M401 736h-66l-110 97l-110 -97h-64l121 180h106zM410 10q0 -12 -15 -12h-338q-15 0 -15 12t21 15q33 5 41 9q22 11 22 41v535q0 30 -22 41q-8 3 -41 8q-21 4 -21 16t15 12h338q15 0 15 -12t-22 -16q-33 -5 -41 -8q-21 -11 -21 -41v-535q0 -30 21 -41q8 -4 41 -9
q22 -3 22 -15z" />
    <glyph glyph-name="Idieresis" unicode="&#xcf;" horiz-adv-x="451" 
d="M405 814q0 -30 -21 -51t-50 -21q-30 0 -50.5 21t-20.5 51t20.5 51t50.5 21q29 0 50 -21t21 -51zM189 814q0 -30 -21 -51t-50 -21q-30 0 -50.5 21t-20.5 51t20.5 51t50.5 21q29 0 50 -21t21 -51zM410 10q0 -12 -15 -12h-338q-15 0 -15 12t21 15q33 5 41 9q22 11 22 41v535
q0 30 -22 41q-8 3 -41 8q-21 4 -21 16t15 12h338q15 0 15 -12t-22 -16q-33 -5 -41 -8q-21 -11 -21 -41v-535q0 -30 21 -41q8 -4 41 -9q22 -3 22 -15z" />
    <glyph glyph-name="Eth" unicode="&#xd0;" horiz-adv-x="737" 
d="M736 342q0 -166 -106 -257q-101 -87 -271 -87h-336l-15 12q0 11 22 15q32 5 40 9q22 11 22 41v285h-92v44h92v206q0 30 -22 40q-7 4 -40 10q-22 3 -22 15l15 12h336q170 0 271 -87q106 -92 106 -258zM516 342q0 143 -20 209q-36 118 -145 118h-59v-265h122v-44h-122v-307
q0 -37 59 -37q109 0 145 118q20 66 20 208z" />
    <glyph glyph-name="Ntilde" unicode="&#xd1;" horiz-adv-x="806" 
d="M597 893q-18 -64 -39 -93q-31 -44 -86 -44q-37 0 -90.5 26.5t-73.5 26.5q-40 0 -46 -50h-47q34 137 120 137q30 0 90.5 -25.5t76.5 -25.5q34 0 45 48h50zM785 674q0 -9 -33 -21q-39 -15 -44 -19q-39 -33 -39 -115v-538l-10 -9q-13 1 -234 265l-250 302v-373
q0 -82 39 -115q5 -4 44 -19q33 -13 33 -21l-19 -13h-226l-19 13q0 8 33 21q38 15 43 19q40 33 40 115v409q-24 36 -55 54t-62 35q-5 4 -5 10q0 13 22 13l258 -2l336 -404v238q0 82 -40 115q-4 4 -44 19q-32 12 -32 21l19 13h226z" />
    <glyph glyph-name="Ograve" unicode="&#xd2;" horiz-adv-x="770" 
d="M468 736h-61l-152 90q-35 21 -35 50q0 23 16.5 36.5t39.5 13.5q37 0 67 -37zM759 342q0 -155 -108.5 -256.5t-265.5 -101.5q-156 0 -265 101.5t-109 256.5q0 156 110 259q107 100 264 100t264 -100q110 -103 110 -259zM539 342q0 149 -16 210q-32 125 -138 125
q-105 0 -138 -125q-16 -61 -16 -210q0 -148 16 -209q33 -125 138 -125t138 125q16 61 16 209z" />
    <glyph glyph-name="Oacute" unicode="&#xd3;" horiz-adv-x="779" 
d="M555 876q0 -29 -35 -50l-152 -90h-61l125 153q30 37 67 37q23 0 39.5 -13.5t16.5 -36.5zM763 342q0 -155 -108.5 -256.5t-265.5 -101.5q-156 0 -265 101.5t-109 256.5q0 156 110 259q107 100 264 100t265 -100q109 -103 109 -259zM543 342q0 149 -16 210
q-32 125 -138 125q-105 0 -138 -125q-16 -61 -16 -210q0 -148 16 -209q33 -125 138 -125q106 0 138 125q16 61 16 209z" />
    <glyph glyph-name="Ocircumflex" unicode="&#xd4;" horiz-adv-x="779" 
d="M564 736h-66l-110 97l-110 -97h-64l121 180h106zM763 342q0 -155 -108.5 -256.5t-265.5 -101.5q-156 0 -265 101.5t-109 256.5q0 156 110 259q107 100 264 100t265 -100q109 -103 109 -259zM543 342q0 149 -16 210q-32 125 -138 125q-105 0 -138 -125q-16 -61 -16 -210
q0 -148 16 -209q33 -125 138 -125q106 0 138 125q16 61 16 209z" />
    <glyph glyph-name="Otilde" unicode="&#xd5;" horiz-adv-x="779" 
d="M580 893q-17 -64 -38 -93q-32 -44 -87 -44q-36 0 -90 26.5t-74 26.5q-39 0 -46 -50h-47q34 137 120 137q30 0 91 -25.5t76 -25.5q35 0 45 48h50zM763 342q0 -155 -108.5 -256.5t-265.5 -101.5q-156 0 -265 101.5t-109 256.5q0 156 110 259q107 100 264 100t265 -100
q109 -103 109 -259zM543 342q0 149 -16 210q-32 125 -138 125q-105 0 -138 -125q-16 -61 -16 -210q0 -148 16 -209q33 -125 138 -125q106 0 138 125q16 61 16 209z" />
    <glyph glyph-name="Odieresis" unicode="&#xd6;" horiz-adv-x="770" 
d="M564 814q0 -30 -20.5 -51t-50.5 -21q-29 0 -50 21t-21 51t21 51t50 21q30 0 50.5 -21t20.5 -51zM348 814q0 -30 -20.5 -51t-50.5 -21q-29 0 -50 21t-21 51t21 51t50 21q30 0 50.5 -21t20.5 -51zM759 342q0 -155 -108.5 -256.5t-265.5 -101.5q-156 0 -265 101.5
t-109 256.5q0 156 110 259q107 100 264 100t264 -100q110 -103 110 -259zM539 342q0 149 -16 210q-32 125 -138 125q-105 0 -138 -125q-16 -61 -16 -210q0 -148 16 -209q33 -125 138 -125t138 125q16 61 16 209z" />
    <glyph glyph-name="multiply" unicode="&#xd7;" horiz-adv-x="556" 
d="M505 86l-85 -86l-142 143l-142 -143l-85 86l142 143l-142 144l85 86l142 -144l142 144l85 -86l-142 -144z" />
    <glyph glyph-name="Oslash" unicode="&#xd8;" horiz-adv-x="772" 
d="M760 342q0 -155 -109 -256.5t-265 -101.5q-68 0 -132 22l-56 -115h-60l67 135q-90 46 -141.5 130t-51.5 186q0 156 110 259q107 100 264 100q76 0 140 -25l50 102h58l-60 -124q88 -46 137 -129t49 -183zM497 618q-35 59 -111 59q-106 0 -138 -125q-16 -61 -16 -210
t21 -219zM540 342q0 141 -17 209l-243 -492q33 -51 106 -51q105 0 138 125q16 61 16 209z" />
    <glyph glyph-name="Ugrave" unicode="&#xd9;" horiz-adv-x="791" 
d="M486 736h-61l-152 90q-35 21 -35 50q0 23 16.5 36.5t39.5 13.5q37 0 67 -37zM764 675q-114 -33 -114 -196q0 -37 7 -119t7 -122q0 -120 -50 -179q-64 -75 -224 -75q-112 0 -184 36q-96 47 -96 148v442q0 30 -21 40q-8 4 -41 10q-22 3 -22 15l15 12h338l15 -12
q1 -12 -21 -15q-33 -6 -41 -10q-22 -10 -22 -40v-458q0 -62 36.5 -99t97.5 -37q79 0 130.5 49t51.5 127v327q0 69 -19 101q-23 37 -87 55l14 12h216z" />
    <glyph glyph-name="Uacute" unicode="&#xda;" horiz-adv-x="791" 
d="M562 876q0 -29 -35 -50l-152 -90h-61l125 153q31 37 67 37q24 0 40 -13.5t16 -36.5zM764 675q-114 -33 -114 -196q0 -37 7 -119t7 -122q0 -120 -50 -179q-64 -75 -224 -75q-112 0 -184 36q-96 47 -96 148v442q0 30 -21 40q-8 4 -41 10q-22 3 -22 15l15 12h338l15 -12
q1 -12 -21 -15q-33 -6 -41 -10q-22 -10 -22 -40v-458q0 -62 36.5 -99t97.5 -37q79 0 130.5 49t51.5 127v327q0 69 -19 101q-23 37 -87 55l14 12h216z" />
    <glyph glyph-name="Ucircumflex" unicode="&#xdb;" horiz-adv-x="791" 
d="M578 736h-66l-110 97l-110 -97h-64l121 180h106zM764 675q-114 -33 -114 -196q0 -37 7 -119t7 -122q0 -120 -50 -179q-64 -75 -224 -75q-112 0 -184 36q-96 47 -96 148v442q0 30 -21 40q-8 4 -41 10q-22 3 -22 15l15 12h338l15 -12q1 -12 -21 -15q-33 -6 -41 -10
q-22 -10 -22 -40v-458q0 -62 36.5 -99t97.5 -37q79 0 130.5 49t51.5 127v327q0 69 -19 101q-23 37 -87 55l14 12h216z" />
    <glyph glyph-name="Udieresis" unicode="&#xdc;" horiz-adv-x="680" 
d="M537 814q0 -30 -21 -51t-50 -21t-50 21t-21 51t21 51t50 21t50 -21t21 -51zM321 814q0 -30 -21 -51t-50 -21t-50 21t-21 51t21 51t50 21t50 -21t21 -51zM709 675q-114 -33 -114 -196q0 -37 7 -119t7 -122q0 -120 -50 -179q-65 -75 -224 -75q-113 0 -185 36
q-95 47 -95 148v442q0 30 -22 40q-8 4 -41 10q-21 3 -21 15l15 12h338l15 -12q0 -12 -21 -15q-33 -6 -41 -10q-22 -10 -22 -40v-458q0 -62 36 -99t98 -37q79 0 130.5 49t51.5 127v327q0 69 -20 101q-23 37 -86 55l14 12h216z" />
    <glyph glyph-name="Yacute" unicode="&#xdd;" horiz-adv-x="613" 
d="M455 876q0 -29 -35 -50l-152 -90h-61l125 153q31 37 67 37q24 0 40 -13.5t16 -36.5zM663 677q0 -4 -24 -17q-30 -16 -31 -16q-48 -37 -99 -121l-100 -168v-280q0 -30 22 -41q9 -4 41 -9q22 -4 21 -15l-15 -12h-338l-15 12q0 11 22 15q32 5 41 9q21 11 21 41v237l-176 303
q-16 29 -38 37q-36 13 -41 16.5t-5 8.5l17 10h342l22 -11q0 -5 -33.5 -15t-33.5 -37q0 -16 58 -125q35 -65 69 -129l66 110q43 81 43 124q0 30 -17 44q-9 8 -31 14q-18 5 -18 12q0 13 32 13h174q19 0 24 -10z" />
    <glyph glyph-name="Thorn" unicode="&#xde;" horiz-adv-x="623" 
d="M629 356q0 -128 -122 -172q-72 -26 -229 -26v-83q0 -30 22 -41q8 -4 41 -9q22 -3 21 -15l-15 -12h-338l-15 12q0 12 22 15q32 5 40 9q22 11 22 41v535q0 30 -22 41q-7 4 -40 8q-22 4 -22 16l15 12h338l15 -12q1 -12 -21 -16q-33 -4 -41 -8q-22 -11 -22 -41v-71q36 2 96 2
q104 0 172 -40q83 -49 83 -145zM409 349q0 83 -12 114q-20 54 -87 54h-32v-335h32q67 0 87 54q12 31 12 113z" />
    <glyph glyph-name="germandbls" unicode="&#xdf;" horiz-adv-x="584" 
d="M584 172q0 -89 -66 -140q-61 -48 -152 -48q-48 0 -83 23q-40 27 -40 73q0 80 71 80q65 0 65 -67q0 -16 -15.5 -36t-15.5 -34q0 -21 22 -21q34 0 34 104q0 16 -1 39t-1 27q0 69 -31 118q-14 22 -59 65q-31 30 -31 53q0 13 27 69.5t27 110.5q0 147 -71 147q-34 0 -53 -26.5
t-19 -61.5q0 -41 18.5 -120t18.5 -121v-406l-217 -2l-11 10q0 7 29 15.5t29 36.5v327h-59q22 28 77 138.5t91 158.5q57 76 113 76q68 0 123 -48.5t55 -115.5q0 -58 -42 -97q-21 -20 -78 -50q-42 -21 -42 -37t60 -31l76 -16q151 -45 151 -193z" />
    <glyph glyph-name="agrave" unicode="&#xe0;" horiz-adv-x="517" 
d="M324 529h-61l-152 90q-35 21 -35 50q0 23 16 36.5t40 13.5q36 0 67 -37zM517 76q-2 -36 -56 -62q-46 -22 -85 -22q-88 0 -106 65q-80 -65 -151 -65q-48 0 -81 22q-37 25 -37 70q0 48 50 87q38 28 109 55q51 17 103 34v141q0 41 -30 41q-56 0 -56 -58q0 -10 2 -31.5
t2 -30.5q0 -36 -24.5 -57t-60.5 -21q-77 0 -77 62q0 70 107 120q90 41 170 41q149 0 149 -128v-271q0 -20 17 -20q14 0 26 18t20 19zM263 76v162q-80 -32 -80 -100q0 -83 41 -83q18 0 39 21z" />
    <glyph glyph-name="aacute" unicode="&#xe1;" horiz-adv-x="517" 
d="M407 669q0 -29 -35 -50l-152 -90h-61l125 153q30 37 67 37q23 0 39.5 -13.5t16.5 -36.5zM517 76q-2 -36 -56 -62q-46 -22 -85 -22q-88 0 -106 65q-80 -65 -151 -65q-48 0 -81 22q-37 25 -37 70q0 48 50 87q38 28 109 55q51 17 103 34v141q0 41 -30 41q-56 0 -56 -58
q0 -10 2 -31.5t2 -30.5q0 -36 -24.5 -57t-60.5 -21q-77 0 -77 62q0 70 107 120q90 41 170 41q149 0 149 -128v-271q0 -20 17 -20q14 0 26 18t20 19zM263 76v162q-80 -32 -80 -100q0 -83 41 -83q18 0 39 21z" />
    <glyph glyph-name="acircumflex" unicode="&#xe2;" horiz-adv-x="517" 
d="M416 529h-66l-110 97l-110 -97h-64l121 180h106zM517 76q-2 -36 -56 -62q-46 -22 -85 -22q-88 0 -106 65q-80 -65 -151 -65q-48 0 -81 22q-37 25 -37 70q0 48 50 87q38 28 109 55q51 17 103 34v141q0 41 -30 41q-56 0 -56 -58q0 -10 2 -31.5t2 -30.5q0 -36 -24.5 -57
t-60.5 -21q-77 0 -77 62q0 70 107 120q90 41 170 41q149 0 149 -128v-271q0 -20 17 -20q14 0 26 18t20 19zM263 76v162q-80 -32 -80 -100q0 -83 41 -83q18 0 39 21z" />
    <glyph glyph-name="atilde" unicode="&#xe3;" horiz-adv-x="517" 
d="M432 686q-18 -64 -39 -93q-31 -44 -86 -44q-37 0 -90.5 26.5t-73.5 26.5q-40 0 -46 -50h-47q33 137 120 137q29 0 90 -25.5t77 -25.5q34 0 45 48h50zM517 76q-2 -36 -56 -62q-46 -22 -85 -22q-88 0 -106 65q-80 -65 -151 -65q-48 0 -81 22q-37 25 -37 70q0 48 50 87
q38 28 109 55q51 17 103 34v141q0 41 -30 41q-56 0 -56 -58q0 -10 2 -31.5t2 -30.5q0 -36 -24.5 -57t-60.5 -21q-77 0 -77 62q0 70 107 120q90 41 170 41q149 0 149 -128v-271q0 -20 17 -20q14 0 26 18t20 19zM263 76v162q-80 -32 -80 -100q0 -83 41 -83q18 0 39 21z" />
    <glyph glyph-name="adieresis" unicode="&#xe4;" horiz-adv-x="517" 
d="M420 607q0 -30 -21 -51t-50 -21q-30 0 -50.5 21t-20.5 51t20.5 51t50.5 21q29 0 50 -21t21 -51zM204 607q0 -30 -21 -51t-50 -21q-30 0 -50.5 21t-20.5 51t20.5 51t50.5 21q29 0 50 -21t21 -51zM517 76q-2 -36 -56 -62q-46 -22 -85 -22q-88 0 -106 65q-80 -65 -151 -65
q-48 0 -81 22q-37 25 -37 70q0 48 50 87q38 28 109 55q51 17 103 34v141q0 41 -30 41q-56 0 -56 -58q0 -10 2 -31.5t2 -30.5q0 -36 -24.5 -57t-60.5 -21q-77 0 -77 62q0 70 107 120q90 41 170 41q149 0 149 -128v-271q0 -20 17 -20q14 0 26 18t20 19zM263 76v162
q-80 -32 -80 -100q0 -83 41 -83q18 0 39 21z" />
    <glyph glyph-name="aring" unicode="&#xe5;" horiz-adv-x="517" 
d="M349 638q0 -44 -32 -76t-76 -32q-45 0 -76.5 31.5t-31.5 76.5t31.5 77t76.5 32q44 0 76 -32.5t32 -76.5zM517 76q-2 -36 -56 -62q-46 -22 -85 -22q-88 0 -106 65q-80 -65 -151 -65q-48 0 -81 22q-37 25 -37 70q0 48 50 87q38 28 109 55q51 17 103 34v141q0 41 -30 41
q-56 0 -56 -58q0 -10 2 -31.5t2 -30.5q0 -36 -24.5 -57t-60.5 -21q-77 0 -77 62q0 70 107 120q90 41 170 41q149 0 149 -128v-271q0 -20 17 -20q14 0 26 18t20 19zM293 638q0 22 -15.5 37.5t-36.5 15.5q-22 0 -37 -15.5t-15 -37.5t15 -37t37 -15q21 0 36.5 15t15.5 37z
M263 76v162q-80 -32 -80 -100q0 -83 41 -83q18 0 39 21z" />
    <glyph glyph-name="ae" unicode="&#xe6;" horiz-adv-x="719" 
d="M721 171q-1 -78 -74 -131q-66 -48 -146 -48q-136 0 -198 101q-104 -101 -186 -101q-48 0 -81 22q-37 25 -37 70q0 48 50 87q38 28 109 55q51 17 103 34v141q0 41 -30 41q-56 0 -56 -58q0 -10 2 -31.5t2 -30.5q0 -36 -24.5 -57t-60.5 -21q-77 0 -77 62q0 70 107 120
q90 41 170 41q71 0 105 -26q48 26 110 26q91 0 147.5 -56.5t58.5 -147.5h-278q5 -67 37 -111q37 -51 100 -51q52 0 80 23q29 30 58 59zM561 287q0 66 -7 94q-13 61 -56 61q-44 0 -57 -61q-6 -28 -6 -94h126zM261 76v162q-80 -32 -80 -100q0 -83 41 -83q18 0 39 21z" />
    <glyph glyph-name="ccedilla" unicode="&#xe7;" horiz-adv-x="537" 
d="M491 157q-1 -60 -68 -110q-60 -43 -130 -53l-31 -63q22 4 39 4q36 0 61.5 -19t25.5 -53q0 -91 -136 -91q-62 0 -97 20l15 37q39 -13 62 -13q54 0 54 40q0 15 -12 25t-28 10q-18 0 -26 -5l-18 10l47 97q-89 7 -146.5 71t-57.5 155q0 101 73 174.5t174 73.5q72 0 132 -39
q67 -45 67 -114q0 -38 -20.5 -61t-57.5 -23q-74 0 -74 90q0 15 2 42t2 38q0 48 -50 48q-42 0 -66 -52q-20 -42 -20 -89q0 -78 38 -137q44 -69 118 -69q53 0 82 25q13 20 37 41z" />
    <glyph glyph-name="egrave" unicode="&#xe8;" horiz-adv-x="535" 
d="M362 529h-61l-152 90q-35 21 -35 50q0 23 16.5 36.5t39.5 13.5q37 0 67 -37zM495 171q-1 -78 -74 -131q-65 -48 -146 -48q-103 0 -169.5 66t-66.5 169t70.5 171.5t173.5 68.5q92 0 148.5 -56.5t57.5 -147.5h-278q6 -67 38 -111q37 -51 99 -51q54 0 81 23q29 30 57 59z
M335 287q0 66 -6 94q-14 61 -57 61t-56 -61q-7 -28 -7 -94h126z" />
    <glyph glyph-name="eacute" unicode="&#xe9;" horiz-adv-x="535" 
d="M445 669q0 -29 -35 -50l-152 -90h-61l125 153q31 37 67 37q23 0 39.5 -13.5t16.5 -36.5zM495 171q-1 -78 -74 -131q-65 -48 -146 -48q-103 0 -169.5 66t-66.5 169t70.5 171.5t173.5 68.5q92 0 148.5 -56.5t57.5 -147.5h-278q6 -67 38 -111q37 -51 99 -51q54 0 81 23
q29 30 57 59zM335 287q0 66 -6 94q-14 61 -57 61t-56 -61q-7 -28 -7 -94h126z" />
    <glyph glyph-name="ecircumflex" unicode="&#xea;" horiz-adv-x="535" 
d="M454 529h-66l-110 97l-110 -97h-64l121 180h106zM495 171q-1 -78 -74 -131q-65 -48 -146 -48q-103 0 -169.5 66t-66.5 169t70.5 171.5t173.5 68.5q92 0 148.5 -56.5t57.5 -147.5h-278q6 -67 38 -111q37 -51 99 -51q54 0 81 23q29 30 57 59zM335 287q0 66 -6 94
q-14 61 -57 61t-56 -61q-7 -28 -7 -94h126z" />
    <glyph glyph-name="edieresis" unicode="&#xeb;" horiz-adv-x="535" 
d="M458 607q0 -30 -20.5 -51t-50.5 -21q-29 0 -50 21t-21 51t21 51t50 21q30 0 50.5 -21t20.5 -51zM242 607q0 -30 -20.5 -51t-50.5 -21q-29 0 -50 21t-21 51t21 51t50 21q30 0 50.5 -21t20.5 -51zM495 171q-1 -78 -74 -131q-65 -48 -146 -48q-103 0 -169.5 66t-66.5 169
t70.5 171.5t173.5 68.5q92 0 148.5 -56.5t57.5 -147.5h-278q6 -67 38 -111q37 -51 99 -51q54 0 81 23q29 30 57 59zM335 287q0 66 -6 94q-14 61 -57 61t-56 -61q-7 -28 -7 -94h126z" />
    <glyph glyph-name="igrave" unicode="&#xec;" horiz-adv-x="358" 
d="M273 529h-61l-152 90q-35 21 -35 50q0 23 16 36.5t40 13.5q36 0 67 -37zM334 8q0 -10 -11 -10h-264q-11 0 -11 10q0 7 29 15.5t29 36.5v288q0 29 -18 46q-9 9 -31 17q-17 7 -17 13q0 7 49 11q90 8 187 32v-407q0 -28 29 -36.5t29 -15.5z" />
    <glyph glyph-name="iacute" unicode="&#xed;" horiz-adv-x="358" 
d="M337 669q0 -29 -35 -50l-152 -90h-61l125 153q30 37 67 37q23 0 39.5 -13.5t16.5 -36.5zM315 8q0 -10 -11 -10h-264q-11 0 -11 10q0 7 29 15.5t29 36.5v288q0 29 -17 46q-10 9 -32 17q-17 7 -17 13q0 7 50 11q90 8 186 32v-407q0 -28 29 -36.5t29 -15.5z" />
    <glyph glyph-name="icircumflex" unicode="&#xee;" horiz-adv-x="358" 
d="M354 529h-66l-110 97l-110 -97h-64l121 180h106zM323 8q0 -10 -11 -10h-264q-11 0 -11 10q0 7 29 15.5t29 36.5v288q0 29 -17 46q-10 9 -32 17q-17 7 -17 13q0 7 50 11q90 8 186 32v-407q0 -28 29 -36.5t29 -15.5z" />
    <glyph glyph-name="idieresis" unicode="&#xef;" horiz-adv-x="358" 
d="M358 607q0 -30 -20.5 -51t-50.5 -21q-29 0 -50 21t-21 51t21 51t50 21q30 0 50.5 -21t20.5 -51zM142 607q0 -30 -20.5 -51t-50.5 -21q-29 0 -50 21t-21 51t21 51t50 21q30 0 50.5 -21t20.5 -51zM323 8q0 -10 -11 -10h-264q-11 0 -11 10q0 7 29 15.5t29 36.5v288
q0 29 -17 46q-10 9 -32 17q-17 7 -17 13q0 7 50 11q90 8 186 32v-407q0 -28 29 -36.5t29 -15.5z" />
    <glyph glyph-name="eth" unicode="&#xf0;" horiz-adv-x="526" 
d="M527 248q0 -111 -76 -183.5t-188 -72.5q-103 0 -181 66q-83 69 -83 171q0 105 83 173q78 64 184 64q25 0 50 -4q-22 86 -60 138l-131 -73v45l106 61q-65 79 -115 96l9 8q76 0 164 -68l134 78v-50l-96 -56q91 -72 144 -174q56 -107 56 -219zM335 229q0 93 -5 126
q-15 87 -67 87t-66 -87q-6 -33 -6 -126t6 -126q14 -87 66 -87t67 87q5 33 5 126z" />
    <glyph glyph-name="ntilde" unicode="&#xf1;" horiz-adv-x="598" 
d="M494 686q-18 -64 -39 -93q-31 -44 -86 -44q-37 0 -90.5 26.5t-73.5 26.5q-40 0 -46 -50h-47q34 137 120 137q30 0 90.5 -25.5t76.5 -25.5q34 0 45 48h50zM592 8l-11 -10h-256l-11 10q0 6 25 15t25 37v283q0 61 -47 61q-34 0 -75 -39v-305q0 -28 25 -37t25 -15l-11 -10
h-256l-11 10q0 6 29 15t29 37v288q0 29 -17 46q-10 9 -32 17q-17 7 -17 13q0 7 53 11q87 8 183 32v-70q90 70 165 70q127 0 127 -151v-256q0 -28 29 -37t29 -15z" />
    <glyph glyph-name="ograve" unicode="&#xf2;" horiz-adv-x="591" 
d="M378 529h-61l-152 90q-35 21 -35 50q0 23 16.5 36.5t39.5 13.5q37 0 67 -37zM559 229q0 -102 -82 -171q-78 -66 -182 -66q-103 0 -181 66q-83 69 -83 171t82 172q78 66 182 66q105 0 183 -66q81 -70 81 -172zM367 229q0 93 -5 126q-15 87 -67 87q-51 0 -66 -87
q-6 -33 -6 -126t6 -126q15 -87 66 -87q52 0 67 87q5 33 5 126z" />
    <glyph glyph-name="oacute" unicode="&#xf3;" horiz-adv-x="591" 
d="M461 669q0 -29 -35 -50l-152 -90h-61l125 153q31 37 67 37q24 0 40 -13.5t16 -36.5zM559 229q0 -102 -82 -171q-78 -66 -182 -66q-103 0 -181 66q-83 69 -83 171t82 172q78 66 182 66q105 0 183 -66q81 -70 81 -172zM367 229q0 93 -5 126q-15 87 -67 87q-51 0 -66 -87
q-6 -33 -6 -126t6 -126q15 -87 66 -87q52 0 67 87q5 33 5 126z" />
    <glyph glyph-name="ocircumflex" unicode="&#xf4;" horiz-adv-x="591" 
d="M470 529h-66l-110 97l-110 -97h-64l121 180h106zM559 229q0 -102 -82 -171q-78 -66 -182 -66q-103 0 -181 66q-83 69 -83 171t82 172q78 66 182 66q105 0 183 -66q81 -70 81 -172zM367 229q0 93 -5 126q-15 87 -67 87q-51 0 -66 -87q-6 -33 -6 -126t6 -126q15 -87 66 -87
q52 0 67 87q5 33 5 126z" />
    <glyph glyph-name="otilde" unicode="&#xf5;" horiz-adv-x="591" 
d="M486 686q-17 -64 -38 -93q-31 -44 -87 -44q-36 0 -89.5 26.5t-74.5 26.5q-39 0 -46 -50h-47q34 137 120 137q30 0 91 -25.5t76 -25.5q35 0 45 48h50zM559 229q0 -102 -82 -171q-78 -66 -182 -66q-103 0 -181 66q-83 69 -83 171t82 172q78 66 182 66q105 0 183 -66
q81 -70 81 -172zM367 229q0 93 -5 126q-15 87 -67 87q-51 0 -66 -87q-6 -33 -6 -126t6 -126q15 -87 66 -87q52 0 67 87q5 33 5 126z" />
    <glyph glyph-name="odieresis" unicode="&#xf6;" horiz-adv-x="591" 
d="M474 607q0 -30 -20.5 -51t-50.5 -21q-29 0 -50 21t-21 51t21 51t50 21q30 0 50.5 -21t20.5 -51zM258 607q0 -30 -20.5 -51t-50.5 -21q-29 0 -50 21t-21 51t21 51t50 21q30 0 50.5 -21t20.5 -51zM559 229q0 -102 -82 -171q-78 -66 -182 -66q-103 0 -181 66q-83 69 -83 171
t82 172q78 66 182 66q105 0 183 -66q81 -70 81 -172zM367 229q0 93 -5 126q-15 87 -67 87q-51 0 -66 -87q-6 -33 -6 -126t6 -126q15 -87 66 -87q52 0 67 87q5 33 5 126z" />
    <glyph glyph-name="divide" unicode="&#xf7;" horiz-adv-x="544" 
d="M361 422q0 -37 -26.5 -63.5t-62.5 -26.5q-37 0 -63 26.5t-26 63.5t26 63.5t63 26.5t63 -26.5t26 -63.5zM499 169h-454v121h454v-121zM361 36q0 -37 -26.5 -63.5t-62.5 -26.5q-37 0 -63 26.5t-26 63.5t26 63.5t63 26.5t63 -26.5t26 -63.5z" />
    <glyph glyph-name="oslash" unicode="&#xf8;" horiz-adv-x="530" 
d="M529 229q0 -102 -82 -171q-78 -66 -182 -66q-51 0 -96 17l-61 -112h-52l71 131q-56 31 -91 85t-35 116q0 102 82 172q78 66 182 66q52 0 93 -16l54 98h52l-64 -117q58 -31 93 -84q36 -56 36 -119zM323 387q-14 55 -58 55q-52 0 -66 -87q-6 -33 -6 -126q0 -13 1 -38v-38h2
zM337 229q0 38 -2 82h-2l-127 -235q14 -60 59 -60q52 0 67 87q5 33 5 126z" />
    <glyph glyph-name="ugrave" unicode="&#xf9;" horiz-adv-x="641" 
d="M402 529h-61l-152 90q-35 21 -35 50q0 23 16.5 36.5t39.5 13.5q37 0 67 -37zM617 22q0 -7 -48 -10q-95 -4 -188 -20v57q-42 -33 -77 -45t-88 -12q-134 0 -134 197q0 32 3.5 86.5t3.5 72.5q0 29 -17 46q-9 9 -32 17q-17 7 -17 13q0 7 49 11q91 8 187 32v-364q0 -61 47 -61
q33 0 75 40v266q0 29 -17 46q-9 9 -32 17q-17 7 -17 13q0 7 49 11q91 8 187 32v-369q0 -29 17 -46q10 -9 32 -17q17 -7 17 -13z" />
    <glyph glyph-name="uacute" unicode="&#xfa;" horiz-adv-x="641" 
d="M485 669q0 -29 -35 -50l-152 -90h-61l125 153q31 37 67 37q23 0 39.5 -13.5t16.5 -36.5zM617 22q0 -7 -48 -10q-95 -4 -188 -20v57q-42 -33 -77 -45t-88 -12q-134 0 -134 197q0 32 3.5 86.5t3.5 72.5q0 29 -17 46q-9 9 -32 17q-17 7 -17 13q0 7 49 11q91 8 187 32v-364
q0 -61 47 -61q33 0 75 40v266q0 29 -17 46q-9 9 -32 17q-17 7 -17 13q0 7 49 11q91 8 187 32v-369q0 -29 17 -46q10 -9 32 -17q17 -7 17 -13z" />
    <glyph glyph-name="ucircumflex" unicode="&#xfb;" horiz-adv-x="641" 
d="M494 529h-66l-110 97l-110 -97h-64l121 180h106zM617 22q0 -7 -48 -10q-95 -4 -188 -20v57q-42 -33 -77 -45t-88 -12q-134 0 -134 197q0 32 3.5 86.5t3.5 72.5q0 29 -17 46q-9 9 -32 17q-17 7 -17 13q0 7 49 11q91 8 187 32v-364q0 -61 47 -61q33 0 75 40v266
q0 29 -17 46q-9 9 -32 17q-17 7 -17 13q0 7 49 11q91 8 187 32v-369q0 -29 17 -46q10 -9 32 -17q17 -7 17 -13z" />
    <glyph glyph-name="udieresis" unicode="&#xfc;" horiz-adv-x="641" 
d="M498 607q0 -30 -20.5 -51t-50.5 -21q-29 0 -50 21t-21 51t21 51t50 21q30 0 50.5 -21t20.5 -51zM282 607q0 -30 -20.5 -51t-50.5 -21q-29 0 -50 21t-21 51t21 51t50 21q30 0 50.5 -21t20.5 -51zM617 22q0 -7 -48 -10q-95 -4 -188 -20v57q-42 -33 -77 -45t-88 -12
q-134 0 -134 197q0 32 3.5 86.5t3.5 72.5q0 29 -17 46q-9 9 -32 17q-17 7 -17 13q0 7 49 11q91 8 187 32v-364q0 -61 47 -61q33 0 75 40v266q0 29 -17 46q-9 9 -32 17q-17 7 -17 13q0 7 49 11q91 8 187 32v-369q0 -29 17 -46q10 -9 32 -17q17 -7 17 -13z" />
    <glyph glyph-name="yacute" unicode="&#xfd;" horiz-adv-x="461" 
d="M396 669q0 -29 -35 -50l-152 -90h-61l125 153q31 37 67 37q24 0 40 -13.5t16 -36.5zM492 453q0 -4 -5 -8q-54 -36 -84 -103l-188 -428q-28 -65 -54 -97q-41 -49 -95 -49q-35 0 -58.5 22t-23.5 57q0 32 21.5 53.5t52.5 21.5q29 0 48 -18q9 -8 23 -32q10 -18 18 -18
q17 0 43 55q15 36 30 71l-196 417q-5 12 -30.5 31.5t-25.5 21.5l15 11h237q16 0 16 -10q0 -7 -16 -14t-16 -23q0 -15 47 -121q27 -60 54 -119q20 44 39 89q20 54 20 94q0 48 -21 69q-2 2 -18.5 11t-16.5 13l14 11h159z" />
    <glyph glyph-name="thorn" unicode="&#xfe;" horiz-adv-x="553" 
d="M556 257q0 -112 -74.5 -188.5t-180.5 -76.5q-36 0 -72 10v-150q0 -27 29 -36.5t29 -15.5l-11 -10h-264l-11 10q0 6 29 15.5t29 36.5v766q0 28 -31 40t-31 17q0 9 25 13q16 1 31 3q82 11 176 46v-333q70 63 150 63q86 0 134 -63q43 -58 43 -147zM374 223q0 66 -16 112
q-24 69 -77 69q-28 0 -52 -22v-265q0 -107 67 -107q54 0 71 86q7 38 7 127z" />
    <glyph glyph-name="ydieresis" unicode="&#xff;" horiz-adv-x="536" 
d="M444 607q0 -30 -20.5 -51t-50.5 -21q-29 0 -50 21t-21 51t21 51t50 21q30 0 50.5 -21t20.5 -51zM228 607q0 -30 -20.5 -51t-50.5 -21q-29 0 -50 21t-21 51t21 51t50 21q30 0 50.5 -21t20.5 -51zM515 453q0 -4 -5 -8q-54 -36 -84 -103l-188 -428q-28 -65 -55 -97
q-40 -49 -94 -49q-35 0 -58.5 22t-23.5 57q0 32 21.5 53.5t52.5 21.5q29 0 48 -18q9 -8 23 -32q10 -18 18 -18q16 0 43 55q15 36 30 71l-196 417q-5 12 -30.5 31.5t-25.5 21.5l15 11h237q16 0 16 -10q0 -7 -16 -14t-16 -23q0 -15 47 -121q27 -60 54 -119q20 44 39 89
q20 54 20 94q0 48 -21 69q-2 2 -18.5 11t-16.5 13l14 11h159z" />
    <glyph glyph-name="dotlessi" unicode="&#x131;" horiz-adv-x="378" 
d="M336 8q0 -10 -11 -10h-264q-11 0 -11 10q0 7 29 15.5t29 35.5v286q0 29 -17 45q-10 9 -32 17q-17 7 -17 13q0 7 50 11q90 8 186 31v-403q0 -27 29 -35.5t29 -15.5z" />
    <glyph glyph-name="Lslash" unicode="&#x141;" horiz-adv-x="627" 
d="M638 257q-4 -52 -22 -130q-15 -65 -30 -129h-562l-15 12q0 12 21 15q33 5 41 9q22 11 22 40v202l-104 -42v52l104 42v276q0 29 -22 40q-8 4 -41 9q-21 3 -21 15l15 12h338l15 -12q0 -12 -22 -15q-32 -5 -40 -9q-22 -11 -22 -40v-194l208 84v-52l-208 -84v-272
q0 -64 58 -64q125 0 208 120q34 62 69 124z" />
    <glyph glyph-name="lslash" unicode="&#x142;" horiz-adv-x="356" 
d="M350 448l-87 -45v-344q0 -27 29 -35.5t29 -15.5l-11 -10h-264l-11 10q0 7 29 15.5t29 35.5v255l-87 -46v46l87 46v252q0 28 -31 39.5t-31 16.5q0 9 22 13q15 1 29 2q85 11 181 47v-281l87 45v-46z" />
    <glyph glyph-name="OE" unicode="&#x152;" horiz-adv-x="1109" 
d="M1095 260q-4 -52 -22 -131q-15 -66 -30 -131l-510 2v44h-2q-20 -27 -73 -45q-46 -15 -86 -15q-152 0 -255 103t-103 255t103 255.5t255 103.5q40 0 86 -15q54 -18 73 -46h2v45q310 0 468 2l69 -230l-11 -12q-40 59 -96 135q-83 80 -238 83v-289q57 0 90 23q25 17 45 58
q17 39 35 79l10 -13v-331l-10 -13q-2 3 -35 83q-18 45 -42 64q-32 25 -93 25v-262q0 -37 17.5 -51t56.5 -14q102 0 171 62q46 42 81 117q30 67 34 68zM533 342q0 142 -18 208q-33 127 -135 127q-154 0 -154 -335q0 -334 154 -334q102 0 135 126q18 66 18 208z" />
    <glyph glyph-name="oe" unicode="&#x153;" horiz-adv-x="791" 
d="M792 171q-2 -78 -74 -131q-66 -48 -146 -48q-92 0 -150 48q-70 -48 -158 -48q-104 0 -182 66q-82 69 -82 171t82 172q78 66 182 66q90 0 163 -51q66 51 153 51q91 0 147.5 -56.5t58.5 -147.5h-278q5 -67 37 -111q37 -51 100 -51q53 0 80 23q29 30 58 59zM632 287
q0 66 -7 94q-13 61 -56 61q-44 0 -57 -61q-6 -28 -6 -94h126zM344 229q0 95 -6 127q-15 86 -70 86q-56 0 -71 -86q-5 -32 -5 -127t5 -127q15 -86 71 -86q55 0 70 86q6 32 6 127z" />
    <glyph glyph-name="Scaron" unicode="&#x160;" horiz-adv-x="607" 
d="M464 916l-121 -180h-106l-123 180h66l110 -97l110 97h64zM576 230q0 -115 -91 -184q-82 -62 -201 -62q-36 0 -102.5 18t-98.5 18q-17 0 -25.5 -18t-14.5 -18q-12 0 -12 20v260q0 23 13 23q6 0 11 -11q7 -16 26 -80q15 -49 35 -80q71 -108 174 -108q55 0 89.5 34t34.5 90
q0 80 -99 118l-184 64q-99 50 -99 159q0 105 80 169q73 59 181 59q31 0 87.5 -18t83.5 -18q18 0 23.5 18t14.5 18q17 -10 21 -232l-12 -17q-27 49 -54 99q-34 60 -66 88q-44 38 -106 38q-52 0 -84.5 -27.5t-32.5 -78.5q0 -64 106 -99q186 -62 196 -68q106 -57 106 -174z" />
    <glyph glyph-name="scaron" unicode="&#x161;" horiz-adv-x="421" 
d="M378 709l-121 -180h-106l-123 180h66l110 -97l110 97h64zM407 162q0 -76 -67 -125q-61 -45 -140 -45q-108 0 -186 33v164q0 14 12 14q7 0 17 -31q6 -20 12 -39q50 -123 148 -123q86 0 86 69q0 42 -71 69q-130 49 -132 50q-71 40 -71 112q0 71 62 116q55 41 129 41
q73 0 164 -30v-126q0 -12 -10 -17q-16 17 -37 62.5t-39 63.5q-30 28 -83 28q-30 0 -52 -14q-26 -17 -26 -46q0 -34 74 -61q120 -44 136 -53q74 -42 74 -112z" />
    <glyph glyph-name="Ydieresis" unicode="&#x178;" horiz-adv-x="736" 
d="M502 814q0 -30 -20.5 -51t-50.5 -21q-29 0 -50 21t-21 51t21 51t50 21q30 0 50.5 -21t20.5 -51zM286 814q0 -30 -20.5 -51t-50.5 -21q-29 0 -50 21t-21 51t21 51t50 21q30 0 50.5 -21t20.5 -51zM663 677q0 -4 -24 -17q-30 -16 -31 -16q-48 -37 -99 -121l-100 -168v-280
q0 -30 22 -41q9 -4 41 -9q22 -4 21 -15l-15 -12h-338l-15 12q0 11 22 15q32 5 41 9q21 11 21 41v237l-176 303q-16 29 -38 37q-36 13 -41 16.5t-5 8.5l17 10h342l22 -11q0 -5 -33.5 -15t-33.5 -37q0 -16 58 -125q35 -65 69 -129l66 110q43 81 43 124q0 30 -17 44
q-9 8 -31 14q-18 5 -18 12q0 13 32 13h174q19 0 24 -10z" />
    <glyph glyph-name="Zcaron" unicode="&#x17d;" horiz-adv-x="664" 
d="M537 907l-121 -178h-106l-123 178h66l110 -96l110 96h64zM654 251l-77 -253q-282 3 -567 0l409 658q-164 -3 -258 -92q-17 -16 -55 -72q-36 -51 -37 -51l-10 10q10 47 33 115q20 57 39 114q130 -2 261 -2q130 0 261 2l-406 -658h14q110 0 207 58q93 56 152 152
q6 11 23 29z" />
    <glyph glyph-name="zcaron" unicode="&#x17e;" horiz-adv-x="572" 
d="M478 702l-121 -178h-106l-123 178h66l110 -96l110 96h64zM532 456l-290 -440q113 6 192 80q24 23 44 59q33 60 35 63q5 7 9 7l9 -9q-4 -23 -44 -218q-222 3 -447 0l290 440q-79 0 -149 -54q-63 -48 -102 -124l-8 10l45 186q208 -3 416 0z" />
    <glyph glyph-name="florin" unicode="&#x192;" horiz-adv-x="683" 
d="M681 647q0 -34 -22 -57t-56 -23q-24 0 -42.5 14.5t-18.5 38.5q0 11 7 29.5t7 28.5l-24 25q-24 0 -38 -29q-10 -23 -10 -51q0 -24 5.5 -71.5t5.5 -71.5q0 -17 -2 -32h95l-15 -56h-88q-21 -195 -113 -372q-119 -228 -280 -228q-36 0 -63.5 23t-27.5 59q0 30 20 49.5
t50 19.5q39 0 61 -22q2 -2 29 -42q16 -22 37 -22q58 0 58 120q0 133 62 415h-75q35 32 99 131q68 105 107 145q66 69 135 69q38 0 67.5 -26.5t29.5 -63.5z" />
    <glyph glyph-name="circumflex" unicode="&#x2c6;" horiz-adv-x="367" 
d="M358 529h-66l-110 97l-110 -97h-64l121 180h106z" />
    <glyph glyph-name="caron" unicode="&#x2c7;" horiz-adv-x="400" 
d="M375 702l-121 -178h-106l-123 178h66l110 -96l110 96h64z" />
    <glyph glyph-name="breve" unicode="&#x2d8;" horiz-adv-x="395" 
d="M355 692q-13 -168 -158 -168q-144 0 -158 168h50q15 -83 108 -83t108 83h50z" />
    <glyph glyph-name="dotaccent" unicode="&#x2d9;" horiz-adv-x="271" 
d="M207 601q0 -29 -21 -50t-50 -21q-30 0 -50.5 21t-20.5 50t20.5 50t50.5 21q29 0 50 -21t21 -50z" />
    <glyph glyph-name="ring" unicode="&#x2da;" horiz-adv-x="247" 
d="M232 632q0 -44 -32 -76t-76 -32q-45 0 -76.5 31.5t-31.5 76.5q0 44 31.5 76t76.5 32q44 0 76 -32t32 -76zM176 632q0 22 -15.5 37t-36.5 15q-22 0 -37 -15t-15 -37t15 -37t37 -15q21 0 36.5 15t15.5 37z" />
    <glyph glyph-name="ogonek" unicode="&#x2db;" horiz-adv-x="372" 
d="M320 -162q-84 -62 -156 -62q-47 0 -80 25.5t-33 72.5q0 63 95 106q70 33 150 42v-16q-147 -48 -147 -121q0 -22 15.5 -34.5t37.5 -12.5q35 0 96 40z" />
    <glyph glyph-name="tilde" unicode="&#x2dc;" horiz-adv-x="421" 
d="M401 686q-17 -64 -38 -93q-31 -44 -87 -44q-36 0 -89.5 26.5t-74.5 26.5q-39 0 -46 -50h-47q34 137 120 137q30 0 91 -25.5t76 -25.5q35 0 45 48h50z" />
    <glyph glyph-name="hungarumlaut" unicode="&#x2dd;" horiz-adv-x="450" 
d="M443 662q0 -29 -35 -49l-152 -89h-61l125 151q31 37 67 37q23 0 39.5 -13.5t16.5 -36.5zM243 662q0 -27 -35 -49l-144 -89h-57l118 150q30 38 62 38q23 0 39.5 -13.5t16.5 -36.5z" />
    <glyph glyph-name="Delta" unicode="&#x394;" horiz-adv-x="643" 
d="M609 0h-574l276 672h22zM479 45l-186 459l-187 -459h373z" />
    <glyph glyph-name="Delta" unicode="&#x2206;" horiz-adv-x="643" 
d="M609 0h-574l276 672h22zM479 45l-186 459l-187 -459h373z" />
    <glyph glyph-name="Omega" unicode="&#x3a9;" horiz-adv-x="718" 
d="M693 408q0 -108 -72 -177q-64 -61 -176 -82v-59h123q50 0 69 20q16 18 19 66h23v-176h-272v180q81 16 126 81q42 61 42 147q0 103 -57 167t-159 64q-101 0 -158.5 -64.5t-57.5 -166.5q0 -88 41 -147q44 -64 127 -81v-180h-272v176h23q3 -49 20.5 -67.5t67.5 -18.5h123v59
q-111 20 -176 82q-72 69 -72 177q0 131 105 204q92 63 229 63t229 -63q105 -73 105 -204z" />
    <glyph glyph-name="Omega" unicode="&#x2126;" horiz-adv-x="718" 
d="M693 408q0 -108 -72 -177q-64 -61 -176 -82v-59h123q50 0 69 20q16 18 19 66h23v-176h-272v180q81 16 126 81q42 61 42 147q0 103 -57 167t-159 64q-101 0 -158.5 -64.5t-57.5 -166.5q0 -88 41 -147q44 -64 127 -81v-180h-272v176h23q3 -49 20.5 -67.5t67.5 -18.5h123v59
q-111 20 -176 82q-72 69 -72 177q0 131 105 204q92 63 229 63t229 -63q105 -73 105 -204z" />
    <glyph glyph-name="pi" unicode="&#x3c0;" horiz-adv-x="589" 
d="M549 469q0 -98 -94 -98q-13 0 -28 2q-4 -86 -4 -161v-62q0 -56 2 -70q7 -47 37 -47q52 0 58 118h25v-5q0 -156 -106 -156q-108 0 -108 213q0 41 4 98q5 70 5 75q-34 0 -127 3q0 -170 -6 -221q-21 -168 -97 -168q-46 0 -62 48q-8 27 -8 86h24q2 -52 37 -52q54 0 71 134
q5 39 7 173h-22q-76 0 -87 -53h-23q5 128 201 128q39 0 112 -5.5t100 -5.5q72 0 66 29h23v-3z" />
    <glyph glyph-name="endash" unicode="&#x2013;" horiz-adv-x="540" 
d="M520 182h-500v95h500v-95z" />
    <glyph glyph-name="emdash" unicode="&#x2014;" horiz-adv-x="1040" 
d="M1020 182h-1000v95h1000v-95z" />
    <glyph glyph-name="quoteleft" unicode="&#x2018;" horiz-adv-x="232" 
d="M226 466q0 -41 -28.5 -64.5t-70.5 -23.5q-55 0 -89 44q-32 41 -32 97q0 120 127 205q31 21 41 21q8 0 8 -9q0 -4 -26 -22q-33 -22 -49 -43q-27 -34 -27 -78q0 -34 38 -42l70 -14q38 -16 38 -71z" />
    <glyph glyph-name="quoteright" unicode="&#x2019;" horiz-adv-x="254" 
d="M237 596q0 -119 -126 -205q-32 -21 -42 -21q-8 0 -8 9q0 4 27 22q32 22 49 43q26 34 26 78q0 35 -36.5 42t-71.5 14q-38 16 -38 71q0 41 29 64.5t70 23.5q55 0 88 -42.5t33 -98.5z" />
    <glyph glyph-name="quotesinglbase" unicode="&#x201a;" horiz-adv-x="337" 
d="M278 24q0 -119 -126 -205q-32 -21 -42 -21q-8 0 -8 9q0 4 27 22q32 22 49 44q26 34 26 78q0 34 -36.5 41t-71.5 14q-38 16 -38 72q0 40 29 64t70 24q55 0 90 -45q31 -41 31 -97z" />
    <glyph glyph-name="quotedblleft" unicode="&#x201c;" horiz-adv-x="547" 
d="M522 466q0 -41 -28.5 -64.5t-70.5 -23.5q-54 0 -89 44q-32 41 -32 97q0 120 127 205q32 21 41 21q8 0 8 -9q0 -4 -26 -22q-32 -22 -49 -43q-27 -34 -27 -78q0 -34 38 -42q35 -7 71 -14q37 -16 37 -71zM244 466q0 -41 -28.5 -64.5t-70.5 -23.5q-54 0 -89 44q-32 41 -32 97
q0 120 127 205q32 21 41 21q8 0 8 -9q0 -4 -26 -22q-32 -22 -49 -43q-27 -34 -27 -78q0 -34 38 -42q35 -7 71 -14q37 -16 37 -71z" />
    <glyph glyph-name="quotedblright" unicode="&#x201d;" horiz-adv-x="569" 
d="M534 596q0 -119 -127 -205q-31 -21 -41 -21q-8 0 -8 9q0 4 26 22q33 22 49 43q27 34 27 78q0 35 -36.5 42t-71.5 14q-38 16 -38 71q0 41 28.5 64.5t70.5 23.5q54 0 89 -44q32 -41 32 -97zM256 596q0 -119 -127 -205q-31 -21 -41 -21q-8 0 -8 9q0 4 26 22q33 22 49 43
q27 34 27 78q0 35 -36.5 42t-71.5 14q-38 16 -38 71q0 41 28.5 64.5t70.5 23.5q54 0 89 -44q32 -41 32 -97z" />
    <glyph glyph-name="quotedblbase" unicode="&#x201e;" horiz-adv-x="601" 
d="M549 24q0 -119 -126 -205q-32 -21 -42 -21q-8 0 -8 9q0 4 27 22q32 22 49 44q26 34 26 78q0 34 -36.5 41t-71.5 14q-38 16 -38 72q0 40 29 64t70 24q55 0 89 -45q32 -41 32 -97zM271 24q0 -119 -126 -205q-32 -21 -42 -21q-8 0 -8 9q0 4 27 22q32 22 49 44q26 34 26 78
q0 34 -36.5 41t-71.5 14q-38 16 -38 72q0 40 29 64t70 24q55 0 89 -45q32 -41 32 -97z" />
    <glyph glyph-name="dagger" unicode="&#x2020;" horiz-adv-x="458" 
d="M453 465q0 -29 -18.5 -49t-46.5 -20q-26 0 -66 24t-55 24l-16 -22q0 -26 14.5 -61t32.5 -55q-37 -40 -46 -199q-2 -31 -3 -214h-40q-1 183 -3 214q-9 159 -46 199q18 20 32.5 55t14.5 61l-16 22q-15 0 -55 -24t-66 -24q-28 0 -46.5 20t-18.5 49q0 28 18.5 48t46.5 20
q26 0 66 -24t55 -24l16 18q0 12 -28 53.5t-28 67.5q0 34 22 55.5t56 21.5t56 -21.5t22 -55.5q0 -26 -28 -67.5t-28 -53.5l16 -18q15 0 55 24t66 24q28 0 46.5 -20t18.5 -48z" />
    <glyph glyph-name="daggerdbl" unicode="&#x2021;" horiz-adv-x="461" 
d="M454 113q0 -28 -18.5 -48.5t-46.5 -20.5q-25 0 -65.5 24.5t-55.5 24.5l-16 -18q1 -12 28.5 -54t27.5 -67q0 -34 -22 -55.5t-56 -21.5t-56 21.5t-22 55.5q0 25 28 67t28 54l-16 18q-14 0 -54.5 -24.5t-66.5 -24.5q-28 0 -46.5 20.5t-18.5 48.5q0 29 18.5 49t46.5 20
q26 0 66.5 -24.5t54.5 -24.5q5 0 10.5 8t5.5 13q0 28 -38 74q20 31 20 61q0 29 -20 60q37 45 38 75l-16 20q-15 0 -55 -24t-66 -24q-28 0 -46.5 20t-18.5 49q0 28 18.5 48t46.5 20q26 0 66 -24t55 -24l16 18q0 12 -28 54t-28 67q0 34 22 55.5t56 21.5t56 -21.5t22 -55.5
q0 -25 -27.5 -67t-28.5 -54l16 -18q15 0 55.5 24t65.5 24q28 0 46.5 -20t18.5 -48q0 -29 -18 -49t-47 -20q-25 0 -65.5 24t-55.5 24l-16 -20q0 -28 38 -75q-20 -31 -20 -60q0 -30 20 -61q-38 -48 -38 -74q0 -5 6 -13t10 -8q15 0 55.5 24.5t65.5 24.5q29 0 47 -20t18 -49z
" />
    <glyph glyph-name="ellipsis" unicode="&#x2026;" horiz-adv-x="960" 
d="M918 98q0 -44 -30.5 -75t-74.5 -31t-74.5 31t-30.5 75t30.5 75t74.5 31t74.5 -31t30.5 -75zM585 98q0 -44 -30.5 -75t-74.5 -31t-74.5 31t-30.5 75t30.5 75t74.5 31t74.5 -31t30.5 -75zM252 98q0 -44 -30.5 -75t-74.5 -31t-74.5 31t-30.5 75t30.5 75t74.5 31t74.5 -31
t30.5 -75z" />
    <glyph glyph-name="perthousand" unicode="&#x2030;" horiz-adv-x="1126" 
d="M1137 187q0 -74 -56 -134.5t-129 -60.5q-78 0 -131.5 58.5t-53.5 136.5q0 77 54 136t131 59q78 0 131.5 -58.5t53.5 -136.5zM737 187q0 -74 -56 -134.5t-129 -60.5q-78 0 -131.5 58.5t-53.5 136.5q0 77 54 136t131 59q78 0 131.5 -58.5t53.5 -136.5zM703 693l-621 -701
h-59l617 701h63zM359 498q0 -74 -56 -134.5t-129 -60.5q-78 0 -131.5 58.5t-53.5 136.5q0 77 54 136t131 59q78 0 131.5 -58.5t53.5 -136.5zM1005 187q0 177 -53 177t-53 -177q0 -72 5 -102q11 -75 48 -75q38 0 49 76q4 29 4 101zM605 187q0 177 -53 177t-53 -177
q0 -72 5 -102q11 -75 48 -75q38 0 49 76q4 29 4 101zM227 498q0 177 -53 177t-53 -177q0 -72 5 -102q11 -75 48 -75q38 0 49 76q4 29 4 101z" />
    <glyph glyph-name="guilsinglleft" unicode="&#x2039;" horiz-adv-x="275" 
d="M235 53q0 -12 -10 -12q-11 0 -97.5 90.5t-86.5 97.5q0 8 86 98t98 90q10 0 10 -11q0 -13 -40 -90q-23 -44 -46 -87l46 -86q40 -77 40 -90z" />
    <glyph glyph-name="guilsinglright" unicode="&#x203a;" horiz-adv-x="252" 
d="M223 229q0 -7 -86.5 -97.5t-97.5 -90.5q-10 0 -10 12q0 13 40 90l46 86q-23 43 -46 87q-40 77 -40 90q0 11 10 11q12 0 98 -90t86 -98z" />
    <glyph glyph-name="fraction" unicode="&#x2044;" horiz-adv-x="301" 
d="M401 686l-397 -694h-104l397 694h104z" />
    <glyph glyph-name="trademark" unicode="&#x2122;" horiz-adv-x="1038" 
d="M1009 277h-220v34q49 0 49 28v207h-2l-132 -269h-22l-127 275h-3v-167q0 -43 6 -54q10 -19 47 -20v-34h-139v34q34 1 44 17q6 12 6 49v218q0 19 -23 36.5t-44 18.5v35h157l127 -265l133 265h143v-35q-49 0 -49 -28v-283q0 -28 49 -28v-34zM407 590h-34q-7 44 -28 54
q-12 6 -63 6v-311q0 -28 49 -28v-34h-226v34q49 0 49 28v311h-33q-48 0 -59 -60h-34v95h379v-95z" />
    <glyph glyph-name="partialdiff" unicode="&#x2202;" horiz-adv-x="434" 
d="M404 367q0 -131 -47 -239q-61 -141 -175 -141q-75 0 -116 59q-36 51 -36 129t50.5 141.5t127.5 63.5q86 0 118 -93q12 45 12 148q0 167 -63 167q-17 0 -50.5 -35t-55.5 -35q-37 0 -37 32q0 34 35 54q30 17 67 17q91 0 136 -94q34 -71 34 -174zM309 224q0 125 -85 125
q-66 0 -98 -83q-22 -59 -22 -138q0 -119 84 -119q63 0 96 80q25 60 25 135z" />
    <glyph glyph-name="product" unicode="&#x220f;" horiz-adv-x="767" 
d="M767 -216h-264v40h84v880h-407v-880h84v-40h-264v40h88v880h-88v40h767v-40h-88v-880h88v-40z" />
    <glyph glyph-name="summation" unicode="&#x2211;" horiz-adv-x="641" 
d="M633 20q-10 -49 -19 -98q-15 -63 -39 -95q-32 -43 -85 -43h-482l389 446l-375 514h460q65 0 92 -33q20 -25 24 -82.5t7 -114.5h-44q-32 106 -87 144.5t-167 38.5h-132l315 -431l-344 -394h187q109 0 158 24q62 31 97 124h45z" />
    <glyph glyph-name="radical" unicode="&#x221a;" horiz-adv-x="521" 
d="M564 764h-57l-290 -784h-32l-156 431l-61 -22l-12 39l138 48l125 -346l252 681h93v-47z" />
    <glyph glyph-name="infinity" unicode="&#x221e;" horiz-adv-x="660" 
d="M633 300q0 -76 -34 -127q-39 -59 -111 -59q-92 0 -148 124q-65 -124 -157 -124q-70 0 -115 58q-41 54 -41 126q0 74 35 126q40 60 111 60q90 0 148 -124q62 124 157 124q70 0 115 -58q40 -53 40 -126zM609 303q0 53 -29 88t-81 35q-73 0 -142 -155q48 -93 135 -93
q53 0 85 35.5t32 89.5zM304 327q-53 93 -135 93q-53 0 -85 -36t-32 -89q0 -51 27 -85q29 -38 79 -38t92 55q21 29 54 100z" />
    <glyph glyph-name="integral" unicode="&#x222b;" horiz-adv-x="328" 
d="M391 690q0 -21 -14 -34.5t-35 -13.5q-25 0 -45 32t-28 32q-49 0 -57 -310q-6 -208 -6 -210q-10 -159 -46 -248q-48 -119 -142 -119q-32 0 -55 17q-26 19 -26 50q0 47 49 47q25 0 45.5 -31.5t28.5 -31.5q46 0 57 324q3 103 5 206q10 155 46 241q48 116 142 116
q32 0 56.5 -18t24.5 -49z" />
    <glyph glyph-name="approxequal" unicode="&#x2248;" horiz-adv-x="589" 
d="M554 295q-81 -55 -149 -55q-36 0 -107 23.5t-108 23.5q-59 0 -155 -68v77q90 57 160 57q38 0 108.5 -23.5t106.5 -23.5q54 0 144 66v-77zM554 176q-81 -55 -149 -55q-37 0 -109.5 23.5t-110.5 23.5q-55 0 -150 -68v77q93 58 161 58q38 0 108 -24t106 -24q55 0 144 67v-78
z" />
    <glyph glyph-name="approxequal" unicode="&#x22f2;" horiz-adv-x="589" 
d="M554 295q-81 -55 -149 -55q-36 0 -107 23.5t-108 23.5q-59 0 -155 -68v77q90 57 160 57q38 0 108.5 -23.5t106.5 -23.5q54 0 144 66v-77zM554 176q-81 -55 -149 -55q-37 0 -109.5 23.5t-110.5 23.5q-55 0 -150 -68v77q93 58 161 58q38 0 108 -24t106 -24q55 0 144 67v-78
z" />
    <glyph glyph-name="notequal" unicode="&#x2260;" horiz-adv-x="441" 
d="M680 515q0 -20 -21.5 -47t-41.5 -27q-23 0 -23 25q0 20 21.5 46.5t40.5 26.5q24 0 24 -24zM578 327q0 -7 -27 -49q-70 -109 -102 -217q-7 -24 -9 -28q-8 -15 -22 -15q-22 0 -22 24q0 40 66 170q68 134 97 134q19 0 19 -19zM602 641q0 -60 -86 -140.5t-146 -81.5l-28 23
q10 19 65 49q71 38 94 56q48 39 48 83q0 32 -35 32q-74 0 -155 -72q-84 -74 -84 -147q0 -53 59.5 -141.5t59.5 -130.5q0 -68 -69 -114q-61 -40 -133 -40q-94 0 -128 54q-63 -57 -155 -57q-60 0 -101 27q-47 31 -47 88q0 44 30.5 76.5t73.5 32.5l24 -24q0 -13 -18 -21
q-28 -14 -34 -19q-18 -15 -18 -44q0 -32 27 -50q23 -16 57 -16q53 0 97 26q52 31 52 80q0 38 -57.5 122.5t-57.5 136.5q0 99 101 189t201 90q35 0 57.5 -19t22.5 -51q0 -10 -3 -21q104 94 206 94q34 0 57 -18.5t23 -51.5zM335 173q0 37 -57.5 122t-57.5 137q0 33 11 66
q-23 -25 -68 -52q-50 -30 -76 -30q-10 0 -19 6.5t-9 16.5q0 12 54 41q72 39 99 61q54 42 54 86q0 32 -35 32q-74 0 -155 -72q-84 -74 -84 -147q0 -48 39 -113l64 -104q28 18 53 18q24 0 24 -24q0 -14 -18 -22q-29 -13 -34 -17q-18 -15 -18 -44q0 -67 84 -67q53 0 97 26
q52 31 52 80z" />
    <glyph glyph-name="lessequal" unicode="&#x2264;" horiz-adv-x="587" 
d="M525 103l-462 145v65l462 145v-70l-344 -108l344 -107v-70zM525 18h-463v68h463v-68z" />
    <glyph glyph-name="greaterequal" unicode="&#x2265;" horiz-adv-x="506" 
d="M484 248l-463 -145v70l344 107l-344 108v70l463 -145v-65zM484 18h-463v68h463v-68z" />
    <glyph glyph-name="lozenge" unicode="&#x25ca;" horiz-adv-x="530" 
d="M509 289l-244 -522l-244 522l244 518zM453 289l-188 399l-188 -399l188 -403z" />
    <glyph glyph-name="apple" unicode="&#xf000;" horiz-adv-x="734" 
d="M542 758q0 -60 -47.5 -112.5t-106.5 -52.5q-5 0 -6.5 2t-2.5 8v9q0 64 50 115q47 48 112 61v-15q1 -10 1 -15zM707 197q-45 -97 -75 -137q-57 -77 -125 -77q-22 0 -62 16t-62 16t-63 -16t-63 -16q-91 0 -165 147q-65 128 -65 230q0 103 57 170q61 72 162 72q24 0 69 -17
t67 -17q21 0 65.5 17t68.5 17q106 0 175 -80q-98 -62 -98 -160q0 -116 114 -165z" />
    <glyph glyph-name="fi" unicode="&#xf001;" horiz-adv-x="673" 
d="M642 8l-11 -10h-264l-11 10q0 6 29 15t29 36v313q0 26 -25 26h-123v-339q0 -27 29 -36t29 -15l-11 -10h-264l-11 10q0 6 29 15t29 36v339h-64q27 35 82 146q49 101 89 143q61 65 148 65q59 0 104 -25q54 -31 54 -86q0 -32 -20.5 -54.5t-51.5 -22.5q-67 0 -67 76
q0 11 1.5 31t1.5 29q0 34 -36 34q-71 0 -71 -114v-166h135q73 0 183 14v-409q0 -27 29 -36t29 -15z" />
    <glyph glyph-name="fl" unicode="&#xf002;" horiz-adv-x="668" 
d="M639 8l-11 -10h-264l-11 10q0 6 29 15t29 36v513q-45 11 -45 66q0 11 2 32t2 30q0 34 -31 34q-76 0 -76 -114v-166h94l-25 -56h-69v-339q0 -27 29 -36t29 -15l-11 -10h-264l-11 10q0 6 29 15t29 36v339h-64q28 35 82 146q50 101 90 143q61 65 147 65q98 0 135 -54
q59 16 98 32v-671q0 -27 29 -36t29 -15z" />
    </font>
</defs>
</svg>
